<svg width="297" height="155" viewBox="0 0 297 155" fill="none" xmlns="http://www.w3.org/2000/svg">
<g filter="url(#filter0_d_585_1522)">
<rect x="55" y="35" width="187" height="46" rx="23" fill="#42C83C"/>
</g>
<g style="mix-blend-mode:color" filter="url(#filter1_d_585_1522)">
<rect x="50" y="30" width="197" height="55" rx="27.5" fill="#25ED1C"/>
</g>
<path d="M70.588 67.24C69.4813 67.24 68.4613 67.0667 67.528 66.72C66.608 66.36 65.8013 65.8533 65.108 65.2C64.428 64.5467 63.8946 63.78 63.508 62.9C63.1346 62.02 62.948 61.0533 62.948 60C62.948 58.9467 63.1346 57.98 63.508 57.1C63.8946 56.22 64.4346 55.4533 65.128 54.8C65.8213 54.1467 66.6346 53.6467 67.568 53.3C68.5013 52.94 69.528 52.76 70.648 52.76C71.888 52.76 73.0013 52.9667 73.988 53.38C74.988 53.7933 75.828 54.3933 76.508 55.18L74.428 57.1C73.9213 56.5667 73.368 56.1733 72.768 55.92C72.168 55.6533 71.5146 55.52 70.808 55.52C70.128 55.52 69.508 55.6267 68.948 55.84C68.388 56.0533 67.9013 56.36 67.488 56.76C67.088 57.16 66.7746 57.6333 66.548 58.18C66.3346 58.7267 66.228 59.3333 66.228 60C66.228 60.6533 66.3346 61.2533 66.548 61.8C66.7746 62.3467 67.088 62.8267 67.488 63.24C67.9013 63.64 68.3813 63.9467 68.928 64.16C69.488 64.3733 70.1013 64.48 70.768 64.48C71.408 64.48 72.028 64.38 72.628 64.18C73.2413 63.9667 73.8346 63.6133 74.408 63.12L76.248 65.46C75.488 66.0333 74.6013 66.4733 73.588 66.78C72.588 67.0867 71.588 67.24 70.588 67.24ZM73.288 65.04V59.78H76.248V65.46L73.288 65.04ZM84.1577 67.16C83.011 67.16 81.991 66.92 81.0977 66.44C80.2177 65.96 79.5177 65.3067 78.9977 64.48C78.491 63.64 78.2377 62.6867 78.2377 61.62C78.2377 60.54 78.491 59.5867 78.9977 58.76C79.5177 57.92 80.2177 57.2667 81.0977 56.8C81.991 56.32 83.011 56.08 84.1577 56.08C85.291 56.08 86.3043 56.32 87.1977 56.8C88.091 57.2667 88.791 57.9133 89.2977 58.74C89.8043 59.5667 90.0577 60.5267 90.0577 61.62C90.0577 62.6867 89.8043 63.64 89.2977 64.48C88.791 65.3067 88.091 65.96 87.1977 66.44C86.3043 66.92 85.291 67.16 84.1577 67.16ZM84.1577 64.6C84.6777 64.6 85.1443 64.48 85.5577 64.24C85.971 64 86.2977 63.66 86.5377 63.22C86.7777 62.7667 86.8977 62.2333 86.8977 61.62C86.8977 60.9933 86.7777 60.46 86.5377 60.02C86.2977 59.58 85.971 59.24 85.5577 59C85.1443 58.76 84.6777 58.64 84.1577 58.64C83.6377 58.64 83.171 58.76 82.7577 59C82.3443 59.24 82.011 59.58 81.7577 60.02C81.5177 60.46 81.3977 60.9933 81.3977 61.62C81.3977 62.2333 81.5177 62.7667 81.7577 63.22C82.011 63.66 82.3443 64 82.7577 64.24C83.171 64.48 83.6377 64.6 84.1577 64.6ZM102.207 67.16C100.941 67.16 99.9539 66.84 99.2472 66.2C98.5405 65.5467 98.1872 64.58 98.1872 63.3V53.86H101.307V63.26C101.307 63.7133 101.427 64.0667 101.667 64.32C101.907 64.56 102.234 64.68 102.647 64.68C103.141 64.68 103.561 64.5467 103.907 64.28L104.747 66.48C104.427 66.7067 104.041 66.88 103.587 67C103.147 67.1067 102.687 67.16 102.207 67.16ZM96.5272 58.88V56.48H103.987V58.88H96.5272ZM111.287 67.16C110.14 67.16 109.12 66.92 108.227 66.44C107.347 65.96 106.647 65.3067 106.127 64.48C105.62 63.64 105.367 62.6867 105.367 61.62C105.367 60.54 105.62 59.5867 106.127 58.76C106.647 57.92 107.347 57.2667 108.227 56.8C109.12 56.32 110.14 56.08 111.287 56.08C112.42 56.08 113.433 56.32 114.327 56.8C115.22 57.2667 115.92 57.9133 116.427 58.74C116.933 59.5667 117.187 60.5267 117.187 61.62C117.187 62.6867 116.933 63.64 116.427 64.48C115.92 65.3067 115.22 65.96 114.327 66.44C113.433 66.92 112.42 67.16 111.287 67.16ZM111.287 64.6C111.807 64.6 112.273 64.48 112.687 64.24C113.1 64 113.427 63.66 113.667 63.22C113.907 62.7667 114.027 62.2333 114.027 61.62C114.027 60.9933 113.907 60.46 113.667 60.02C113.427 59.58 113.1 59.24 112.687 59C112.273 58.76 111.807 58.64 111.287 58.64C110.767 58.64 110.3 58.76 109.887 59C109.473 59.24 109.14 59.58 108.887 60.02C108.647 60.46 108.527 60.9933 108.527 61.62C108.527 62.2333 108.647 62.7667 108.887 63.22C109.14 63.66 109.473 64 109.887 64.24C110.3 64.48 110.767 64.6 111.287 64.6Z" fill="#322D2D"/>
<path d="M143.746 41C135.05 41 128 48.6113 128 58.0001C128 67.3893 135.05 75 143.746 75C152.443 75 159.492 67.3893 159.492 58.0001C159.492 48.6119 152.443 41.0008 143.746 41.0008L143.746 41ZM150.967 65.519C150.685 66.0184 150.08 66.1768 149.617 65.8702C145.92 63.4321 141.266 62.88 135.785 64.232C135.257 64.3619 134.73 64.0046 134.61 63.4342C134.489 62.8637 134.819 62.2953 135.348 62.1654C141.346 60.6859 146.491 61.3229 150.642 64.0614C151.104 64.368 151.251 65.0196 150.967 65.519ZM152.894 60.8901C152.539 61.5137 151.783 61.7106 151.206 61.327C146.973 58.5182 140.522 57.7047 135.515 59.3454C134.866 59.5572 134.18 59.1621 133.983 58.4623C133.788 57.7614 134.154 57.0224 134.802 56.8093C140.52 54.9359 147.63 55.8434 152.49 59.0681C153.067 59.4518 153.25 60.2677 152.894 60.8901ZM153.06 56.0699C147.985 52.8155 139.612 52.5163 134.767 54.104C133.989 54.3588 133.166 53.8846 132.93 53.0445C132.694 52.2041 133.133 51.3163 133.912 51.061C139.474 49.238 148.72 49.5902 154.563 53.335C155.264 53.7835 155.494 54.7593 155.078 55.5139C154.664 56.2695 153.758 56.5186 153.061 56.0699H153.06ZM170.84 56.6936C168.121 55.9936 167.638 55.5023 167.638 54.47C167.638 53.4948 168.488 52.8385 169.753 52.8385C170.979 52.8385 172.194 53.3369 173.468 54.3628C173.506 54.3939 173.555 54.4063 173.602 54.3982C173.651 54.3905 173.692 54.3622 173.72 54.3198L175.048 52.2995C175.102 52.2163 175.087 52.1016 175.014 52.038C173.497 50.724 171.789 50.0851 169.792 50.0851C166.857 50.0851 164.806 51.9871 164.806 54.7084C164.806 57.6266 166.575 58.6599 169.633 59.4575C172.233 60.1045 172.673 60.6465 172.673 61.6152C172.673 62.6891 171.786 63.357 170.357 63.357C168.77 63.357 167.474 62.7785 166.026 61.4264C165.991 61.3919 165.942 61.3777 165.897 61.3797C165.848 61.3838 165.804 61.4082 165.774 61.4467L164.285 63.359C164.223 63.4402 164.231 63.558 164.302 63.627C165.987 65.2511 168.059 66.1077 170.296 66.1077C173.459 66.1077 175.503 64.2421 175.503 61.3533C175.509 58.9159 174.157 57.5659 170.845 56.6962L170.84 56.6936ZM182.659 53.7987C181.288 53.7987 180.164 54.3817 179.235 55.5764V54.2317C179.235 54.1255 179.156 54.0391 179.058 54.0391H176.624C176.526 54.0391 176.447 54.1255 176.447 54.2317V69.1731C176.447 69.2787 176.526 69.366 176.624 69.366H179.058C179.156 69.366 179.235 69.2787 179.235 69.1731V64.4573C180.164 65.5799 181.288 66.1301 182.659 66.1301C185.207 66.1301 187.787 64.0127 187.787 59.965C187.791 55.9165 185.211 53.7985 182.661 53.7985L182.659 53.7987ZM184.955 59.965C184.955 62.0253 183.78 63.4646 182.095 63.4646C180.431 63.4646 179.175 61.9603 179.175 59.965C179.175 57.9694 180.431 56.4656 182.095 56.4656C183.752 56.4654 184.955 57.937 184.955 59.965ZM194.396 53.7987C191.115 53.7987 188.545 56.5263 188.545 60.009C188.545 63.4545 191.098 66.1524 194.356 66.1524C197.649 66.1524 200.227 63.4342 200.227 59.965C200.227 56.5076 197.666 53.7987 194.396 53.7987ZM194.396 63.4849C192.651 63.4849 191.335 61.9705 191.335 59.964C191.335 57.9483 192.606 56.4857 194.356 56.4857C196.113 56.4857 197.436 57.9995 197.436 60.008C197.436 62.0233 196.158 63.4849 194.396 63.4849ZM207.233 54.0391H204.553V51.0821C204.553 50.9761 204.474 50.8896 204.376 50.8896H201.942C201.844 50.8896 201.763 50.9761 201.763 51.0821V54.0391H200.593C200.496 54.0391 200.417 54.1255 200.417 54.2317V56.4906C200.417 56.5965 200.496 56.6832 200.593 56.6832H201.763V62.5288C201.763 64.8897 202.852 66.0874 205.001 66.0874C205.873 66.0874 206.597 65.8926 207.28 65.4744C207.336 65.4419 207.37 65.3769 207.37 65.3079V63.156C207.37 63.0911 207.338 63.0281 207.285 62.9936C207.233 62.9571 207.167 62.9551 207.112 62.9855C206.644 63.2393 206.191 63.357 205.683 63.357C204.903 63.357 204.553 62.9733 204.553 62.1166V56.6842H207.233C207.33 56.6842 207.409 56.5977 207.409 56.4916V54.2329C207.413 54.1268 207.334 54.0403 207.234 54.0403L207.233 54.0391ZM216.566 54.0506V53.6874C216.566 52.619 216.946 52.1426 217.796 52.1426C218.304 52.1426 218.712 52.2514 219.169 52.4158C219.225 52.4349 219.283 52.4254 219.328 52.389C219.375 52.3527 219.402 52.2944 219.402 52.2327V50.0179C219.402 49.9333 219.353 49.8584 219.276 49.8334C218.794 49.6785 218.178 49.5195 217.253 49.5195C215.006 49.5195 213.815 50.8866 213.815 53.4715V54.0277H212.646C212.548 54.0277 212.467 54.1142 212.467 54.2201V56.4906C212.467 56.5965 212.548 56.6832 212.646 56.6832H213.815V65.6977C213.815 65.8053 213.896 65.8905 213.994 65.8905H216.427C216.527 65.8905 216.606 65.8053 216.606 65.6977V56.6838H218.879L222.361 65.6977C221.967 66.6437 221.577 66.8325 221.047 66.8325C220.618 66.8325 220.165 66.6944 219.705 66.4204C219.661 66.396 219.609 66.3919 219.564 66.4062C219.517 66.4244 219.477 66.461 219.458 66.5097L218.633 68.4646C218.593 68.558 218.627 68.6656 218.71 68.7143C219.571 69.2178 220.348 69.433 221.308 69.433C223.106 69.433 224.101 68.5276 224.975 66.0956L229.198 54.3137C229.221 54.2544 229.213 54.1875 229.179 54.1349C229.147 54.0827 229.093 54.0512 229.034 54.0512H226.5C226.423 54.0512 226.355 54.1034 226.331 54.1803L223.734 62.1857L220.891 54.1751C220.865 54.1006 220.799 54.0512 220.726 54.0512L216.566 54.0506ZM211.155 54.0391H208.72C208.622 54.0391 208.541 54.1255 208.541 54.2317V65.6977C208.541 65.8053 208.622 65.8905 208.72 65.8905H211.155C211.253 65.8905 211.334 65.8053 211.334 65.6977V54.2325C211.334 54.1263 211.255 54.0399 211.155 54.0399V54.0391ZM209.952 48.818C208.987 48.818 208.205 49.6608 208.205 50.702C208.205 51.7439 208.987 52.5878 209.952 52.5878C210.916 52.5878 211.696 51.7439 211.696 50.702C211.696 49.661 210.914 48.818 209.952 48.818ZM231.278 57.7258C230.315 57.7258 229.565 56.8905 229.565 55.8761C229.565 54.8616 230.324 54.0167 231.287 54.0167C232.25 54.0167 233 54.8519 233 55.8655C233 56.8799 232.24 57.7258 231.278 57.7258ZM231.287 54.2006C230.409 54.2006 229.745 54.9538 229.745 55.8761C229.745 56.7979 230.405 57.5409 231.278 57.5409C232.156 57.5409 232.819 56.7884 232.819 55.8655C232.819 54.9436 232.16 54.2006 231.287 54.2006ZM231.667 56.0557L232.152 56.7882H231.742L231.306 56.1162H230.932V56.7882H230.589V54.8466H231.39C231.81 54.8466 232.084 55.0774 232.084 55.466C232.086 55.7843 231.915 55.9788 231.669 56.0557H231.667ZM231.377 55.1797H230.932V55.7938H231.377C231.599 55.7938 231.733 55.6763 231.733 55.4865C231.733 55.2867 231.599 55.1797 231.377 55.1797Z" fill="#322D2D"/>
<defs>
<filter id="filter0_d_585_1522" x="5" y="5" width="287" height="146" filterUnits="userSpaceOnUse" color-interpolation-filters="sRGB">
<feFlood flood-opacity="0" result="BackgroundImageFix"/>
<feColorMatrix in="SourceAlpha" type="matrix" values="0 0 0 0 0 0 0 0 0 0 0 0 0 0 0 0 0 0 127 0" result="hardAlpha"/>
<feOffset dy="20"/>
<feGaussianBlur stdDeviation="25"/>
<feComposite in2="hardAlpha" operator="out"/>
<feColorMatrix type="matrix" values="0 0 0 0 0 0 0 0 0 0 0 0 0 0 0 0 0 0 0.04 0"/>
<feBlend mode="normal" in2="BackgroundImageFix" result="effect1_dropShadow_585_1522"/>
<feBlend mode="normal" in="SourceGraphic" in2="effect1_dropShadow_585_1522" result="shape"/>
</filter>
<filter id="filter1_d_585_1522" x="0" y="0" width="297" height="155" filterUnits="userSpaceOnUse" color-interpolation-filters="sRGB">
<feFlood flood-opacity="0" result="BackgroundImageFix"/>
<feColorMatrix in="SourceAlpha" type="matrix" values="0 0 0 0 0 0 0 0 0 0 0 0 0 0 0 0 0 0 127 0" result="hardAlpha"/>
<feOffset dy="20"/>
<feGaussianBlur stdDeviation="25"/>
<feComposite in2="hardAlpha" operator="out"/>
<feColorMatrix type="matrix" values="0 0 0 0 0 0 0 0 0 0 0 0 0 0 0 0 0 0 0.04 0"/>
<feBlend mode="normal" in2="BackgroundImageFix" result="effect1_dropShadow_585_1522"/>
<feBlend mode="normal" in="SourceGraphic" in2="effect1_dropShadow_585_1522" result="shape"/>
</filter>
</defs>
</svg>
