<svg width="456" height="107" viewBox="0 0 456 107" fill="none" xmlns="http://www.w3.org/2000/svg">
<path d="M0.773579 85V10.1H33.1946C39.8999 10.1 45.6779 11.2057 50.5286 13.417C55.3793 15.557 59.1243 18.66 61.7636 22.726C64.4029 26.792 65.7226 31.6427 65.7226 37.278C65.7226 42.842 64.4029 47.657 61.7636 51.723C59.1243 55.789 55.3793 58.9277 50.5286 61.139C45.6779 63.279 39.8999 64.349 33.1946 64.349H10.4036L18.1076 56.538V85H0.773579ZM18.1076 58.464L10.4036 50.225H32.2316C37.5816 50.225 41.5762 49.0837 44.2156 46.801C46.8549 44.5183 48.1746 41.344 48.1746 37.278C48.1746 33.1407 46.8549 29.9307 44.2156 27.648C41.5762 25.3653 37.5816 24.224 32.2316 24.224H10.4036L18.1076 15.985V58.464ZM77.9657 85V5.606H94.6577V85H77.9657ZM145.459 85V73.765L144.389 71.304V51.188C144.389 47.6213 143.284 44.8393 141.072 42.842C138.932 40.8447 135.615 39.846 131.121 39.846C128.054 39.846 125.022 40.3453 122.026 41.344C119.102 42.2713 116.605 43.5553 114.536 45.196L108.544 33.533C111.683 31.3217 115.464 29.6097 119.886 28.397C124.309 27.1843 128.803 26.578 133.368 26.578C142.142 26.578 148.955 28.6467 153.805 32.784C158.656 36.9213 161.081 43.377 161.081 52.151V85H145.459ZM127.911 85.856C123.417 85.856 119.565 85.107 116.355 83.609C113.145 82.0397 110.684 79.9353 108.972 77.296C107.26 74.6567 106.404 71.6963 106.404 68.415C106.404 64.991 107.225 61.995 108.865 59.427C110.577 56.859 113.252 54.8617 116.89 53.435C120.528 51.937 125.272 51.188 131.121 51.188H146.422V60.925H132.94C129.017 60.925 126.306 61.567 124.808 62.851C123.382 64.135 122.668 65.74 122.668 67.666C122.668 69.806 123.489 71.518 125.129 72.802C126.841 74.0147 129.16 74.621 132.084 74.621C134.866 74.621 137.363 73.979 139.574 72.695C141.786 71.3397 143.391 69.378 144.389 66.81L146.957 74.514C145.745 78.2233 143.533 81.041 140.323 82.967C137.113 84.893 132.976 85.856 127.911 85.856ZM182.419 106.614C179.423 106.614 176.463 106.15 173.538 105.223C170.614 104.296 168.224 103.012 166.369 101.371L172.468 89.494C173.752 90.6353 175.215 91.527 176.855 92.169C178.567 92.811 180.244 93.132 181.884 93.132C184.238 93.132 186.093 92.5613 187.448 91.42C188.875 90.35 190.159 88.531 191.3 85.963L194.296 78.901L195.58 77.082L216.231 27.434H232.281L206.28 88.531C204.426 93.1677 202.286 96.8057 199.86 99.445C197.506 102.084 194.867 103.939 191.942 105.009C189.089 106.079 185.915 106.614 182.419 106.614ZM192.263 87.247L166.583 27.434H183.81L203.712 75.584L192.263 87.247ZM239.093 85V5.606H255.785V85H239.093ZM271.276 85V27.434H287.968V85H271.276ZM279.622 19.409C276.555 19.409 274.058 18.5173 272.132 16.734C270.206 14.9507 269.243 12.7393 269.243 10.1C269.243 7.46066 270.206 5.24933 272.132 3.466C274.058 1.68266 276.555 0.790994 279.622 0.790994C282.69 0.790994 285.186 1.647 287.112 3.359C289.038 4.99967 290.001 7.13967 290.001 9.779C290.001 12.561 289.038 14.8793 287.112 16.734C285.258 18.5173 282.761 19.409 279.622 19.409ZM322.827 85.856C317.905 85.856 313.161 85.2853 308.596 84.144C304.102 82.9313 300.535 81.4333 297.896 79.65L303.46 67.666C306.099 69.3067 309.202 70.662 312.769 71.732C316.407 72.7307 319.974 73.23 323.469 73.23C327.321 73.23 330.032 72.7663 331.601 71.839C333.242 70.9117 334.062 69.6277 334.062 67.987C334.062 66.6317 333.42 65.633 332.136 64.991C330.923 64.2777 329.283 63.7427 327.214 63.386C325.145 63.0293 322.863 62.6727 320.366 62.316C317.941 61.9593 315.48 61.4957 312.983 60.925C310.486 60.283 308.204 59.3557 306.135 58.143C304.066 56.9303 302.39 55.2897 301.106 53.221C299.893 51.1523 299.287 48.4773 299.287 45.196C299.287 41.558 300.321 38.348 302.39 35.566C304.53 32.784 307.597 30.6083 311.592 29.039C315.587 27.3983 320.366 26.578 325.93 26.578C329.853 26.578 333.848 27.006 337.914 27.862C341.98 28.718 345.368 29.9663 348.079 31.607L342.515 43.484C339.733 41.8433 336.915 40.7377 334.062 40.167C331.28 39.525 328.569 39.204 325.93 39.204C322.221 39.204 319.51 39.7033 317.798 40.702C316.086 41.7007 315.23 42.9847 315.23 44.554C315.23 45.9807 315.836 47.0507 317.049 47.764C318.333 48.4773 320.009 49.048 322.078 49.476C324.147 49.904 326.394 50.2963 328.819 50.653C331.316 50.9383 333.812 51.402 336.309 52.044C338.806 52.686 341.053 53.6133 343.05 54.826C345.119 55.9673 346.795 57.5723 348.079 59.641C349.363 61.6383 350.005 64.2777 350.005 67.559C350.005 71.1257 348.935 74.3 346.795 77.082C344.655 79.7927 341.552 81.9327 337.486 83.502C333.491 85.0713 328.605 85.856 322.827 85.856ZM383.844 85.856C377.067 85.856 371.788 84.144 368.008 80.72C364.227 77.2247 362.337 72.053 362.337 65.205V14.701H379.029V64.991C379.029 67.4163 379.671 69.3067 380.955 70.662C382.239 71.946 383.986 72.588 386.198 72.588C388.837 72.588 391.084 71.8747 392.939 70.448L397.433 82.218C395.721 83.4307 393.652 84.358 391.227 85C388.873 85.5707 386.412 85.856 383.844 85.856ZM353.456 41.558V28.718H393.367V41.558H353.456ZM423.199 72.267V22.833H437.002V72.267H423.199ZM404.688 54.077V41.023H455.62V54.077H404.688Z" fill="#F5F5F5"/>
</svg>
