<svg width="807" height="282" viewBox="0 0 807 282" fill="none" xmlns="http://www.w3.org/2000/svg">
<g filter="url(#filter0_d_585_1523)">
<rect x="50" y="30" width="707" height="182" rx="30" fill="#42C83C"/>
</g>
<path d="M91.3409 138.612C88.4849 138.612 85.7479 138.238 83.1299 137.49C80.5119 136.708 78.4039 135.705 76.8059 134.481L79.6109 128.259C81.1409 129.347 82.9429 130.248 85.0169 130.962C87.1249 131.642 89.2499 131.982 91.3919 131.982C93.0239 131.982 94.3329 131.829 95.3189 131.523C96.3389 131.183 97.0869 130.724 97.5629 130.146C98.0389 129.568 98.2769 128.905 98.2769 128.157C98.2769 127.205 97.9029 126.457 97.1549 125.913C96.4069 125.335 95.4209 124.876 94.1969 124.536C92.9729 124.162 91.6129 123.822 90.1169 123.516C88.6549 123.176 87.1759 122.768 85.6799 122.292C84.2179 121.816 82.8749 121.204 81.6509 120.456C80.4269 119.708 79.4239 118.722 78.6419 117.498C77.8939 116.274 77.5199 114.71 77.5199 112.806C77.5199 110.766 78.0639 108.913 79.1519 107.247C80.2739 105.547 81.9399 104.204 84.1499 103.218C86.3939 102.198 89.1989 101.688 92.5649 101.688C94.8089 101.688 97.0189 101.96 99.1949 102.504C101.371 103.014 103.292 103.796 104.958 104.85L102.408 111.123C100.742 110.171 99.0759 109.474 97.4099 109.032C95.7439 108.556 94.1119 108.318 92.5139 108.318C90.9159 108.318 89.6069 108.505 88.5869 108.879C87.5669 109.253 86.8359 109.746 86.3939 110.358C85.9519 110.936 85.7309 111.616 85.7309 112.398C85.7309 113.316 86.1049 114.064 86.8529 114.642C87.6009 115.186 88.5869 115.628 89.8109 115.968C91.0349 116.308 92.3779 116.648 93.8399 116.988C95.3359 117.328 96.8149 117.719 98.2769 118.161C99.7729 118.603 101.133 119.198 102.357 119.946C103.581 120.694 104.567 121.68 105.315 122.904C106.097 124.128 106.488 125.675 106.488 127.545C106.488 129.551 105.927 131.387 104.805 133.053C103.683 134.719 102 136.062 99.7559 137.082C97.5459 138.102 94.7409 138.612 91.3409 138.612ZM111.572 138V110.562H119.528V138H111.572ZM115.55 106.737C114.088 106.737 112.898 106.312 111.98 105.462C111.062 104.612 110.603 103.558 110.603 102.3C110.603 101.042 111.062 99.988 111.98 99.138C112.898 98.288 114.088 97.863 115.55 97.863C117.012 97.863 118.202 98.271 119.12 99.087C120.038 99.869 120.497 100.889 120.497 102.147C120.497 103.473 120.038 104.578 119.12 105.462C118.236 106.312 117.046 106.737 115.55 106.737ZM139.815 148.302C137.231 148.302 134.732 147.979 132.318 147.333C129.938 146.721 127.949 145.786 126.351 144.528L129.513 138.816C130.669 139.768 132.131 140.516 133.899 141.06C135.701 141.638 137.469 141.927 139.203 141.927C142.025 141.927 144.065 141.298 145.323 140.04C146.615 138.782 147.261 136.912 147.261 134.43V130.299L147.771 123.414L147.669 116.478V110.562H155.217V133.41C155.217 138.51 153.891 142.267 151.239 144.681C148.587 147.095 144.779 148.302 139.815 148.302ZM138.591 136.674C136.041 136.674 133.729 136.13 131.655 135.042C129.615 133.92 127.966 132.373 126.708 130.401C125.484 128.395 124.872 126.066 124.872 123.414C124.872 120.728 125.484 118.399 126.708 116.427C127.966 114.421 129.615 112.874 131.655 111.786C133.729 110.698 136.041 110.154 138.591 110.154C140.903 110.154 142.943 110.63 144.711 111.582C146.479 112.5 147.856 113.945 148.842 115.917C149.828 117.855 150.321 120.354 150.321 123.414C150.321 126.44 149.828 128.939 148.842 130.911C147.856 132.849 146.479 134.294 144.711 135.246C142.943 136.198 140.903 136.674 138.591 136.674ZM140.172 130.146C141.566 130.146 142.807 129.874 143.895 129.33C144.983 128.752 145.833 127.953 146.445 126.933C147.057 125.913 147.363 124.74 147.363 123.414C147.363 122.054 147.057 120.881 146.445 119.895C145.833 118.875 144.983 118.093 143.895 117.549C142.807 116.971 141.566 116.682 140.172 116.682C138.778 116.682 137.537 116.971 136.449 117.549C135.361 118.093 134.494 118.875 133.848 119.895C133.236 120.881 132.93 122.054 132.93 123.414C132.93 124.74 133.236 125.913 133.848 126.933C134.494 127.953 135.361 128.752 136.449 129.33C137.537 129.874 138.778 130.146 140.172 130.146ZM179.299 110.154C181.475 110.154 183.413 110.596 185.113 111.48C186.847 112.33 188.207 113.656 189.193 115.458C190.179 117.226 190.672 119.504 190.672 122.292V138H182.716V123.516C182.716 121.306 182.223 119.674 181.237 118.62C180.285 117.566 178.925 117.039 177.157 117.039C175.899 117.039 174.76 117.311 173.74 117.855C172.754 118.365 171.972 119.164 171.394 120.252C170.85 121.34 170.578 122.734 170.578 124.434V138H162.622V110.562H170.221V118.161L168.793 115.866C169.779 114.03 171.19 112.619 173.026 111.633C174.862 110.647 176.953 110.154 179.299 110.154ZM212.888 138V102.3H221.15V138H212.888ZM245.739 110.154C247.915 110.154 249.853 110.596 251.553 111.48C253.287 112.33 254.647 113.656 255.633 115.458C256.619 117.226 257.112 119.504 257.112 122.292V138H249.156V123.516C249.156 121.306 248.663 119.674 247.677 118.62C246.725 117.566 245.365 117.039 243.597 117.039C242.339 117.039 241.2 117.311 240.18 117.855C239.194 118.365 238.412 119.164 237.834 120.252C237.29 121.34 237.018 122.734 237.018 124.434V138H229.062V110.562H236.661V118.161L235.233 115.866C236.219 114.03 237.63 112.619 239.466 111.633C241.302 110.647 243.393 110.154 245.739 110.154ZM285.04 138L275.146 110.562H282.643L290.854 134.175H287.284L295.852 110.562H302.584L310.897 134.175H307.327L315.793 110.562H322.831L312.886 138H305.185L297.892 117.753H300.238L292.69 138H285.04ZM326.529 138V110.562H334.485V138H326.529ZM330.507 106.737C329.045 106.737 327.855 106.312 326.937 105.462C326.019 104.612 325.56 103.558 325.56 102.3C325.56 101.042 326.019 99.988 326.937 99.138C327.855 98.288 329.045 97.863 330.507 97.863C331.969 97.863 333.159 98.271 334.077 99.087C334.995 99.869 335.454 100.889 335.454 102.147C335.454 103.473 334.995 104.578 334.077 105.462C333.193 106.312 332.003 106.737 330.507 106.737ZM353.089 138.408C349.859 138.408 347.343 137.592 345.541 135.96C343.739 134.294 342.838 131.829 342.838 128.565V104.493H350.794V128.463C350.794 129.619 351.1 130.52 351.712 131.166C352.324 131.778 353.157 132.084 354.211 132.084C355.469 132.084 356.54 131.744 357.424 131.064L359.566 136.674C358.75 137.252 357.764 137.694 356.608 138C355.486 138.272 354.313 138.408 353.089 138.408ZM338.605 117.294V111.174H357.628V117.294H338.605ZM380.709 110.154C382.885 110.154 384.823 110.596 386.523 111.48C388.257 112.33 389.617 113.656 390.603 115.458C391.589 117.226 392.082 119.504 392.082 122.292V138H384.126V123.516C384.126 121.306 383.633 119.674 382.647 118.62C381.695 117.566 380.335 117.039 378.567 117.039C377.309 117.039 376.17 117.311 375.15 117.855C374.164 118.365 373.382 119.164 372.804 120.252C372.26 121.34 371.988 122.734 371.988 124.434V138H364.032V100.158H371.988V118.161L370.203 115.866C371.189 114.03 372.6 112.619 374.436 111.633C376.272 110.647 378.363 110.154 380.709 110.154Z" fill="#322D2D"/>
<path d="M462.24 78C439.464 78 421 97.2521 421 121C421 144.749 439.464 164 462.24 164C485.018 164 503.48 144.749 503.48 121C503.48 97.2536 485.018 78.0021 462.239 78.0021L462.24 78ZM481.152 140.019C480.413 141.282 478.827 141.682 477.616 140.907C467.933 134.74 455.744 133.343 441.389 136.763C440.006 137.092 438.627 136.188 438.312 134.745C437.995 133.302 438.858 131.865 440.245 131.536C455.954 127.794 469.429 129.405 480.3 136.332C481.511 137.107 481.895 138.756 481.152 140.019ZM486.2 128.31C485.269 129.888 483.289 130.386 481.777 129.415C470.692 122.311 453.795 120.253 440.683 124.403C438.982 124.939 437.186 123.939 436.67 122.169C436.158 120.396 437.117 118.527 438.815 117.988C453.792 113.25 472.411 115.545 485.141 123.702C486.653 124.672 487.13 126.736 486.2 128.31ZM486.633 116.118C473.342 107.886 451.413 107.129 438.722 111.145C436.685 111.79 434.53 110.59 433.912 108.466C433.295 106.34 434.444 104.094 436.483 103.448C451.051 98.8372 475.267 99.7281 490.57 109.2C492.406 110.335 493.007 112.803 491.919 114.712C490.835 116.623 488.462 117.253 486.635 116.118H486.633ZM533.199 117.695C526.078 115.925 524.813 114.682 524.813 112.071C524.813 109.604 527.039 107.944 530.353 107.944C533.564 107.944 536.745 109.205 540.084 111.8C540.182 111.879 540.31 111.91 540.434 111.889C540.562 111.87 540.67 111.799 540.744 111.691L544.221 106.581C544.363 106.371 544.324 106.08 544.132 105.92C540.158 102.596 535.686 100.98 530.456 100.98C522.769 100.98 517.397 105.791 517.397 112.674C517.397 120.055 522.031 122.669 530.038 124.687C536.848 126.323 538.001 127.694 538.001 130.144C538.001 132.861 535.676 134.55 531.934 134.55C527.777 134.55 524.384 133.087 520.593 129.667C520.499 129.58 520.371 129.544 520.253 129.549C520.125 129.559 520.011 129.621 519.933 129.718L516.032 134.555C515.87 134.761 515.89 135.058 516.077 135.233C520.489 139.341 525.916 141.508 531.776 141.508C540.059 141.508 545.412 136.789 545.412 129.482C545.427 123.317 541.886 119.902 533.214 117.702L533.199 117.695ZM564.155 110.373C560.565 110.373 557.62 111.848 555.188 114.87V111.468C555.188 111.2 554.981 110.981 554.725 110.981H548.347C548.091 110.981 547.884 111.2 547.884 111.468V149.261C547.884 149.528 548.091 149.749 548.347 149.749H554.725C554.981 149.749 555.188 149.528 555.188 149.261V137.333C557.62 140.173 560.565 141.564 564.155 141.564C570.828 141.564 577.584 136.209 577.584 125.97C577.594 115.73 570.838 110.373 564.16 110.373L564.155 110.373ZM570.168 125.97C570.168 131.182 567.09 134.822 562.678 134.822C558.32 134.822 555.03 131.017 555.03 125.97C555.03 120.923 558.32 117.119 562.678 117.119C567.016 117.118 570.168 120.841 570.168 125.97ZM594.894 110.373C586.301 110.373 579.569 117.272 579.569 126.082C579.569 134.797 586.256 141.621 594.791 141.621C603.414 141.621 610.165 134.745 610.165 125.97C610.165 117.225 603.458 110.373 594.894 110.373ZM594.894 134.874C590.324 134.874 586.877 131.043 586.877 125.968C586.877 120.869 590.206 117.17 594.791 117.17C599.39 117.17 602.857 120.999 602.857 126.079C602.857 131.177 599.508 134.874 594.894 134.874ZM628.514 110.981H621.497V103.502C621.497 103.234 621.29 103.015 621.034 103.015H614.656C614.4 103.015 614.188 103.234 614.188 103.502V110.981H611.125C610.869 110.981 610.663 111.2 610.663 111.468V117.182C610.663 117.45 610.869 117.669 611.125 117.669H614.188V132.455C614.188 138.427 617.04 141.456 622.669 141.456C624.954 141.456 626.85 140.964 628.637 139.906C628.785 139.824 628.873 139.659 628.873 139.485V134.042C628.873 133.877 628.79 133.718 628.652 133.631C628.514 133.539 628.342 133.533 628.199 133.61C626.973 134.252 625.786 134.55 624.456 134.55C622.412 134.55 621.497 133.58 621.497 131.413V117.672H628.514C628.77 117.672 628.977 117.453 628.977 117.185V111.472C628.987 111.203 628.78 110.984 628.519 110.984L628.514 110.981ZM652.959 111.01V110.092C652.959 107.389 653.954 106.184 656.18 106.184C657.51 106.184 658.578 106.459 659.775 106.875C659.923 106.924 660.075 106.899 660.194 106.808C660.317 106.716 660.386 106.568 660.386 106.412V100.81C660.386 100.596 660.258 100.406 660.056 100.343C658.795 99.9515 657.18 99.5494 654.757 99.5494C648.872 99.5494 645.755 103.007 645.755 109.545V110.952H642.692C642.436 110.952 642.224 111.171 642.224 111.439V117.182C642.224 117.45 642.436 117.669 642.692 117.669H645.755V140.471C645.755 140.743 645.967 140.958 646.223 140.958H652.595C652.856 140.958 653.063 140.743 653.063 140.471V117.671H659.017L668.137 140.471C667.103 142.863 666.083 143.341 664.695 143.341C663.572 143.341 662.385 142.992 661.179 142.299C661.065 142.237 660.927 142.227 660.809 142.263C660.686 142.309 660.583 142.401 660.533 142.525L658.372 147.469C658.268 147.706 658.357 147.978 658.573 148.101C660.829 149.374 662.863 149.919 665.379 149.919C670.087 149.919 672.692 147.629 674.982 141.477L686.043 111.676C686.102 111.526 686.082 111.356 685.993 111.223C685.91 111.092 685.767 111.012 685.614 111.012H678.976C678.774 111.012 678.597 111.144 678.533 111.339L671.732 131.587L664.286 111.325C664.217 111.137 664.045 111.012 663.853 111.012L652.959 111.01ZM638.787 110.981H632.409C632.153 110.981 631.941 111.2 631.941 111.468V140.471C631.941 140.743 632.153 140.958 632.409 140.958H638.787C639.043 140.958 639.254 140.743 639.254 140.471V111.47C639.254 111.202 639.048 110.983 638.787 110.983V110.981ZM635.635 97.7748C633.109 97.7748 631.06 99.9068 631.06 102.54C631.06 105.176 633.109 107.31 635.635 107.31C638.161 107.31 640.205 105.176 640.205 102.54C640.205 99.9073 638.156 97.7748 635.635 97.7748ZM691.489 120.307C688.968 120.307 687.003 118.194 687.003 115.628C687.003 113.062 688.992 110.925 691.514 110.925C694.035 110.925 696 113.037 696 115.601C696 118.167 694.01 120.307 691.489 120.307ZM691.514 111.39C689.214 111.39 687.476 113.295 687.476 115.628C687.476 117.959 689.204 119.839 691.489 119.839C693.789 119.839 695.527 117.935 695.527 115.601C695.527 113.269 693.799 111.39 691.514 111.39ZM692.509 116.082L693.779 117.935H692.705L691.563 116.235H690.583V117.935H689.687V113.024H691.785C692.883 113.024 693.602 113.608 693.602 114.59C693.607 115.396 693.159 115.887 692.513 116.082H692.509ZM691.75 113.866H690.583V115.42H691.75C692.331 115.42 692.681 115.122 692.681 114.642C692.681 114.137 692.331 113.866 691.75 113.866Z" fill="#322D2D"/>
<defs>
<filter id="filter0_d_585_1523" x="0" y="0" width="807" height="282" filterUnits="userSpaceOnUse" color-interpolation-filters="sRGB">
<feFlood flood-opacity="0" result="BackgroundImageFix"/>
<feColorMatrix in="SourceAlpha" type="matrix" values="0 0 0 0 0 0 0 0 0 0 0 0 0 0 0 0 0 0 127 0" result="hardAlpha"/>
<feOffset dy="20"/>
<feGaussianBlur stdDeviation="25"/>
<feComposite in2="hardAlpha" operator="out"/>
<feColorMatrix type="matrix" values="0 0 0 0 0 0 0 0 0 0 0 0 0 0 0 0 0 0 0.04 0"/>
<feBlend mode="normal" in2="BackgroundImageFix" result="effect1_dropShadow_585_1523"/>
<feBlend mode="normal" in="SourceGraphic" in2="effect1_dropShadow_585_1523" result="shape"/>
</filter>
</defs>
</svg>
