<svg width="380" height="52" viewBox="0 0 380 52" fill="none" xmlns="http://www.w3.org/2000/svg">
<path d="M0.142047 51V3.4H21.766C26.934 3.4 31.4901 4.39733 35.4341 6.392C39.378 8.34133 42.4607 11.084 44.682 14.62C46.9034 18.156 48.0141 22.3493 48.0141 27.2C48.0141 32.0053 46.9034 36.1987 44.682 39.78C42.4607 43.316 39.378 46.0813 35.4341 48.076C31.4901 50.0253 26.934 51 21.766 51H0.142047ZM11.158 41.956H21.222C24.3954 41.956 27.138 41.3667 29.45 40.188C31.8074 38.964 33.6207 37.2413 34.89 35.02C36.2047 32.7987 36.862 30.192 36.862 27.2C36.862 24.1627 36.2047 21.556 34.89 19.38C33.6207 17.1587 31.8074 15.4587 29.45 14.28C27.138 13.056 24.3954 12.444 21.222 12.444H11.158V41.956ZM78.0137 51V43.86L77.3337 42.296V29.512C77.3337 27.2453 76.6311 25.4773 75.2257 24.208C73.8657 22.9387 71.7577 22.304 68.9017 22.304C66.9524 22.304 65.0257 22.6213 63.1217 23.256C61.2631 23.8453 59.6764 24.6613 58.3617 25.704L54.5537 18.292C56.5484 16.8867 58.9511 15.7987 61.7617 15.028C64.5724 14.2573 67.4284 13.872 70.3297 13.872C75.9057 13.872 80.2351 15.1867 83.3177 17.816C86.4004 20.4453 87.9417 24.548 87.9417 30.124V51H78.0137ZM66.8617 51.544C64.0057 51.544 61.5577 51.068 59.5177 50.116C57.4777 49.1187 55.9137 47.7813 54.8257 46.104C53.7377 44.4267 53.1937 42.5453 53.1937 40.46C53.1937 38.284 53.7151 36.38 54.7577 34.748C55.8457 33.116 57.5457 31.8467 59.8577 30.94C62.1697 29.988 65.1844 29.512 68.9017 29.512H78.6257V35.7H70.0577C67.5644 35.7 65.8417 36.108 64.8897 36.924C63.9831 37.74 63.5297 38.76 63.5297 39.984C63.5297 41.344 64.0511 42.432 65.0937 43.248C66.1817 44.0187 67.6551 44.404 69.5137 44.404C71.2817 44.404 72.8684 43.996 74.2737 43.18C75.6791 42.3187 76.6991 41.072 77.3337 39.44L78.9657 44.336C78.1951 46.6933 76.7897 48.484 74.7497 49.708C72.7097 50.932 70.0804 51.544 66.8617 51.544ZM109.85 51.544C106.722 51.544 103.708 51.1813 100.806 50.456C97.9505 49.6853 95.6838 48.7333 94.0065 47.6L97.5425 39.984C99.2198 41.0267 101.192 41.888 103.458 42.568C105.77 43.2027 108.037 43.52 110.258 43.52C112.706 43.52 114.429 43.2253 115.426 42.636C116.469 42.0467 116.99 41.2307 116.99 40.188C116.99 39.3267 116.582 38.692 115.766 38.284C114.996 37.8307 113.953 37.4907 112.638 37.264C111.324 37.0373 109.873 36.8107 108.286 36.584C106.745 36.3573 105.181 36.0627 103.594 35.7C102.008 35.292 100.557 34.7027 99.2425 33.932C97.9278 33.1613 96.8625 32.1187 96.0465 30.804C95.2758 29.4893 94.8905 27.7893 94.8905 25.704C94.8905 23.392 95.5478 21.352 96.8625 19.584C98.2225 17.816 100.172 16.4333 102.71 15.436C105.249 14.3933 108.286 13.872 111.822 13.872C114.316 13.872 116.854 14.144 119.438 14.688C122.022 15.232 124.176 16.0253 125.898 17.068L122.362 24.616C120.594 23.5733 118.804 22.8707 116.99 22.508C115.222 22.1 113.5 21.896 111.822 21.896C109.465 21.896 107.742 22.2133 106.654 22.848C105.566 23.4827 105.022 24.2987 105.022 25.296C105.022 26.2027 105.408 26.8827 106.178 27.336C106.994 27.7893 108.06 28.152 109.374 28.424C110.689 28.696 112.117 28.9453 113.658 29.172C115.245 29.3533 116.832 29.648 118.418 30.056C120.005 30.464 121.433 31.0533 122.702 31.824C124.017 32.5493 125.082 33.5693 125.898 34.884C126.714 36.1533 127.122 37.8307 127.122 39.916C127.122 42.1827 126.442 44.2 125.082 45.968C123.722 47.6907 121.75 49.0507 119.166 50.048C116.628 51.0453 113.522 51.544 109.85 51.544ZM155.903 13.872C158.805 13.872 161.389 14.4613 163.655 15.64C165.967 16.7733 167.781 18.5413 169.095 20.944C170.41 23.3013 171.067 26.3387 171.067 30.056V51H160.459V31.688C160.459 28.7413 159.802 26.5653 158.487 25.16C157.218 23.7547 155.405 23.052 153.047 23.052C151.37 23.052 149.851 23.4147 148.491 24.14C147.177 24.82 146.134 25.8853 145.363 27.336C144.638 28.7867 144.275 30.6453 144.275 32.912V51H133.667V0.543997H144.275V24.548L141.895 21.488C143.21 19.04 145.091 17.1587 147.539 15.844C149.987 14.5293 152.775 13.872 155.903 13.872ZM202.307 51.544C199.088 51.544 196.323 50.864 194.011 49.504C191.699 48.144 189.931 46.0813 188.707 43.316C187.483 40.5053 186.871 36.9693 186.871 32.708C186.871 28.4013 187.506 24.8653 188.775 22.1C190.09 19.3347 191.903 17.272 194.215 15.912C196.527 14.552 199.224 13.872 202.307 13.872C205.752 13.872 208.835 14.6427 211.555 16.184C214.32 17.7253 216.496 19.9013 218.083 22.712C219.715 25.5227 220.531 28.8547 220.531 32.708C220.531 36.516 219.715 39.8253 218.083 42.636C216.496 45.4467 214.32 47.6453 211.555 49.232C208.835 50.7733 205.752 51.544 202.307 51.544ZM180.683 51V0.543997H191.291V21.828L190.611 32.64L190.815 43.52V51H180.683ZM200.471 42.84C202.239 42.84 203.803 42.432 205.163 41.616C206.568 40.8 207.679 39.644 208.495 38.148C209.356 36.6067 209.787 34.7933 209.787 32.708C209.787 30.5773 209.356 28.764 208.495 27.268C207.679 25.772 206.568 24.616 205.163 23.8C203.803 22.984 202.239 22.576 200.471 22.576C198.703 22.576 197.116 22.984 195.711 23.8C194.306 24.616 193.195 25.772 192.379 27.268C191.563 28.764 191.155 30.5773 191.155 32.708C191.155 34.7933 191.563 36.6067 192.379 38.148C193.195 39.644 194.306 40.8 195.711 41.616C197.116 42.432 198.703 42.84 200.471 42.84ZM245.04 51.544C241.142 51.544 237.674 50.728 234.636 49.096C231.644 47.464 229.264 45.2427 227.496 42.432C225.774 39.576 224.912 36.3347 224.912 32.708C224.912 29.036 225.774 25.7947 227.496 22.984C229.264 20.128 231.644 17.9067 234.636 16.32C237.674 14.688 241.142 13.872 245.04 13.872C248.894 13.872 252.339 14.688 255.376 16.32C258.414 17.9067 260.794 20.1053 262.516 22.916C264.239 25.7267 265.1 28.9907 265.1 32.708C265.1 36.3347 264.239 39.576 262.516 42.432C260.794 45.2427 258.414 47.464 255.376 49.096C252.339 50.728 248.894 51.544 245.04 51.544ZM245.04 42.84C246.808 42.84 248.395 42.432 249.8 41.616C251.206 40.8 252.316 39.644 253.132 38.148C253.948 36.6067 254.356 34.7933 254.356 32.708C254.356 30.5773 253.948 28.764 253.132 27.268C252.316 25.772 251.206 24.616 249.8 23.8C248.395 22.984 246.808 22.576 245.04 22.576C243.272 22.576 241.686 22.984 240.28 23.8C238.875 24.616 237.742 25.772 236.88 27.268C236.064 28.764 235.656 30.5773 235.656 32.708C235.656 34.7933 236.064 36.6067 236.88 38.148C237.742 39.644 238.875 40.8 240.28 41.616C241.686 42.432 243.272 42.84 245.04 42.84ZM294.033 51V43.86L293.353 42.296V29.512C293.353 27.2453 292.651 25.4773 291.245 24.208C289.885 22.9387 287.777 22.304 284.921 22.304C282.972 22.304 281.045 22.6213 279.141 23.256C277.283 23.8453 275.696 24.6613 274.381 25.704L270.573 18.292C272.568 16.8867 274.971 15.7987 277.781 15.028C280.592 14.2573 283.448 13.872 286.349 13.872C291.925 13.872 296.255 15.1867 299.337 17.816C302.42 20.4453 303.961 24.548 303.961 30.124V51H294.033ZM282.881 51.544C280.025 51.544 277.577 51.068 275.537 50.116C273.497 49.1187 271.933 47.7813 270.845 46.104C269.757 44.4267 269.213 42.5453 269.213 40.46C269.213 38.284 269.735 36.38 270.777 34.748C271.865 33.116 273.565 31.8467 275.877 30.94C278.189 29.988 281.204 29.512 284.921 29.512H294.645V35.7H286.077C283.584 35.7 281.861 36.108 280.909 36.924C280.003 37.74 279.549 38.76 279.549 39.984C279.549 41.344 280.071 42.432 281.113 43.248C282.201 44.0187 283.675 44.404 285.533 44.404C287.301 44.404 288.888 43.996 290.293 43.18C291.699 42.3187 292.719 41.072 293.353 39.44L294.985 44.336C294.215 46.6933 292.809 48.484 290.769 49.708C288.729 50.932 286.1 51.544 282.881 51.544ZM313.562 51V14.416H323.694V24.752L322.266 21.76C323.354 19.176 325.099 17.2267 327.502 15.912C329.905 14.552 332.829 13.872 336.274 13.872V23.664C335.821 23.6187 335.413 23.596 335.05 23.596C334.687 23.5507 334.302 23.528 333.894 23.528C330.993 23.528 328.635 24.3667 326.822 26.044C325.054 27.676 324.17 30.2373 324.17 33.728V51H313.562ZM358.024 51.544C354.579 51.544 351.473 50.7733 348.708 49.232C345.943 47.6453 343.744 45.4467 342.112 42.636C340.525 39.8253 339.732 36.516 339.732 32.708C339.732 28.8547 340.525 25.5227 342.112 22.712C343.744 19.9013 345.943 17.7253 348.708 16.184C351.473 14.6427 354.579 13.872 358.024 13.872C361.107 13.872 363.804 14.552 366.116 15.912C368.428 17.272 370.219 19.3347 371.488 22.1C372.757 24.8653 373.392 28.4013 373.392 32.708C373.392 36.9693 372.78 40.5053 371.556 43.316C370.332 46.0813 368.564 48.144 366.252 49.504C363.985 50.864 361.243 51.544 358.024 51.544ZM359.86 42.84C361.583 42.84 363.147 42.432 364.552 41.616C365.957 40.8 367.068 39.644 367.884 38.148C368.745 36.6067 369.176 34.7933 369.176 32.708C369.176 30.5773 368.745 28.764 367.884 27.268C367.068 25.772 365.957 24.616 364.552 23.8C363.147 22.984 361.583 22.576 359.86 22.576C358.092 22.576 356.505 22.984 355.1 23.8C353.695 24.616 352.561 25.772 351.7 27.268C350.884 28.764 350.476 30.5773 350.476 32.708C350.476 34.7933 350.884 36.6067 351.7 38.148C352.561 39.644 353.695 40.8 355.1 41.616C356.505 42.432 358.092 42.84 359.86 42.84ZM369.448 51V43.52L369.652 32.64L368.972 21.828V0.543997H379.58V51H369.448Z" fill="#F5F5F5"/>
</svg>
