<svg width="201" height="77" viewBox="0 0 201 77" fill="none" xmlns="http://www.w3.org/2000/svg">
<g filter="url(#filter0_d_625_295)">
<rect x="14.5908" y="10.3806" width="171.818" height="47.9585" rx="20" fill="white"/>
</g>
<path opacity="0.8" d="M166.773 32.7612V32.7612C168.321 34.778 171.361 34.778 172.909 32.7612V32.7612" stroke="black" stroke-width="1.4" stroke-linecap="round" stroke-linejoin="round"/>
<path d="M26.2329 42.3668V31.1668H30.4249C31.3743 31.1668 32.1903 31.3214 32.8729 31.6308C33.5556 31.9294 34.0783 32.3668 34.4409 32.9428C34.8143 33.5081 35.0009 34.1961 35.0009 35.0068C35.0009 35.7961 34.8143 36.4788 34.4409 37.0548C34.0783 37.6201 33.5556 38.0574 32.8729 38.3668C32.1903 38.6761 31.3743 38.8308 30.4249 38.8308H26.8889L27.4169 38.2708V42.3668H26.2329ZM27.4169 38.3668L26.8889 37.7908H30.3929C31.5129 37.7908 32.3609 37.5508 32.9369 37.0708C33.5236 36.5801 33.8169 35.8921 33.8169 35.0068C33.8169 34.1108 33.5236 33.4174 32.9369 32.9268C32.3609 32.4361 31.5129 32.1908 30.3929 32.1908H26.8889L27.4169 31.6308V38.3668ZM37.1179 42.3668V33.9668H38.2059V36.2548L38.0939 35.8548C38.3286 35.2148 38.7233 34.7294 39.2779 34.3988C39.8326 34.0574 40.5206 33.8868 41.3419 33.8868V34.9908C41.2993 34.9908 41.2566 34.9908 41.2139 34.9908C41.1713 34.9801 41.1286 34.9748 41.0859 34.9748C40.2006 34.9748 39.5073 35.2468 39.0059 35.7908C38.5046 36.3241 38.2539 37.0868 38.2539 38.0788V42.3668H37.1179ZM46.7607 42.4468C45.95 42.4468 45.2194 42.2654 44.5687 41.9028C43.9287 41.5294 43.422 41.0228 43.0487 40.3828C42.6754 39.7321 42.4887 38.9908 42.4887 38.1588C42.4887 37.3161 42.6754 36.5748 43.0487 35.9348C43.422 35.2948 43.9287 34.7934 44.5687 34.4308C45.2087 34.0681 45.9394 33.8868 46.7607 33.8868C47.5927 33.8868 48.3287 34.0681 48.9687 34.4308C49.6194 34.7934 50.126 35.2948 50.4887 35.9348C50.862 36.5748 51.0487 37.3161 51.0487 38.1588C51.0487 38.9908 50.862 39.7321 50.4887 40.3828C50.126 41.0228 49.6194 41.5294 48.9687 41.9028C48.318 42.2654 47.582 42.4468 46.7607 42.4468ZM46.7607 41.4388C47.3687 41.4388 47.9074 41.3054 48.3767 41.0388C48.846 40.7614 49.214 40.3774 49.4807 39.8868C49.758 39.3854 49.8967 38.8094 49.8967 38.1588C49.8967 37.4974 49.758 36.9214 49.4807 36.4308C49.214 35.9401 48.846 35.5614 48.3767 35.2948C47.9074 35.0174 47.374 34.8788 46.7767 34.8788C46.1794 34.8788 45.646 35.0174 45.1767 35.2948C44.7074 35.5614 44.334 35.9401 44.0567 36.4308C43.7794 36.9214 43.6407 37.4974 43.6407 38.1588C43.6407 38.8094 43.7794 39.3854 44.0567 39.8868C44.334 40.3774 44.7074 40.7614 45.1767 41.0388C45.646 41.3054 46.174 41.4388 46.7607 41.4388ZM53.5599 42.3668V32.9108C53.5599 32.1641 53.7786 31.5614 54.2159 31.1028C54.6533 30.6441 55.2826 30.4148 56.1039 30.4148C56.4239 30.4148 56.7333 30.4574 57.0319 30.5428C57.3306 30.6281 57.5813 30.7614 57.7839 30.9428L57.3999 31.7908C57.2399 31.6521 57.0533 31.5508 56.8399 31.4868C56.6266 31.4121 56.3973 31.3748 56.1519 31.3748C55.6719 31.3748 55.3039 31.5081 55.0479 31.7748C54.7919 32.0414 54.6639 32.4361 54.6639 32.9588V34.2388L54.6959 34.7668V42.3668H53.5599ZM52.0559 34.9108V33.9668H57.2559V34.9108H52.0559ZM58.7919 42.3668V33.9668H59.9279V42.3668H58.7919ZM59.3679 32.1108C59.1333 32.1108 58.9359 32.0308 58.7759 31.8708C58.6159 31.7108 58.5359 31.5188 58.5359 31.2948C58.5359 31.0708 58.6159 30.8841 58.7759 30.7348C58.9359 30.5748 59.1333 30.4948 59.3679 30.4948C59.6026 30.4948 59.7999 30.5694 59.9599 30.7188C60.1199 30.8681 60.1999 31.0548 60.1999 31.2788C60.1999 31.5134 60.1199 31.7108 59.9599 31.8708C59.8106 32.0308 59.6133 32.1108 59.3679 32.1108ZM63.1179 42.3668V30.4948H64.2539V42.3668H63.1179ZM70.9828 42.4468C70.1081 42.4468 69.3401 42.2654 68.6788 41.9028C68.0175 41.5294 67.5001 41.0228 67.1268 40.3828C66.7535 39.7321 66.5668 38.9908 66.5668 38.1588C66.5668 37.3268 66.7428 36.5908 67.0948 35.9508C67.4575 35.3108 67.9481 34.8094 68.5668 34.4468C69.1961 34.0734 69.9001 33.8868 70.6788 33.8868C71.4681 33.8868 72.1668 34.0681 72.7748 34.4308C73.3935 34.7828 73.8788 35.2841 74.2308 35.9348C74.5828 36.5748 74.7588 37.3161 74.7588 38.1588C74.7588 38.2121 74.7535 38.2708 74.7428 38.3348C74.7428 38.3881 74.7428 38.4468 74.7428 38.5108H67.4308V37.6628H74.1348L73.6868 37.9988C73.6868 37.3908 73.5535 36.8521 73.2868 36.3828C73.0308 35.9028 72.6788 35.5294 72.2308 35.2628C71.7828 34.9961 71.2655 34.8628 70.6788 34.8628C70.1028 34.8628 69.5855 34.9961 69.1268 35.2628C68.6681 35.5294 68.3108 35.9028 68.0548 36.3828C67.7988 36.8628 67.6708 37.4121 67.6708 38.0308V38.2068C67.6708 38.8468 67.8095 39.4121 68.0868 39.9028C68.3748 40.3828 68.7695 40.7614 69.2708 41.0388C69.7828 41.3054 70.3641 41.4388 71.0148 41.4388C71.5268 41.4388 72.0015 41.3481 72.4388 41.1668C72.8868 40.9854 73.2708 40.7081 73.5908 40.3348L74.2308 41.0708C73.8575 41.5188 73.3881 41.8601 72.8228 42.0948C72.2681 42.3294 71.6548 42.4468 70.9828 42.4468Z" fill="#666666"/>
<defs>
<filter id="filter0_d_625_295" x="0.59082" y="0.380615" width="199.818" height="75.9585" filterUnits="userSpaceOnUse" color-interpolation-filters="sRGB">
<feFlood flood-opacity="0" result="BackgroundImageFix"/>
<feColorMatrix in="SourceAlpha" type="matrix" values="0 0 0 0 0 0 0 0 0 0 0 0 0 0 0 0 0 0 127 0" result="hardAlpha"/>
<feOffset dy="4"/>
<feGaussianBlur stdDeviation="7"/>
<feColorMatrix type="matrix" values="0 0 0 0 0 0 0 0 0 0 0 0 0 0 0 0 0 0 0.1 0"/>
<feBlend mode="normal" in2="BackgroundImageFix" result="effect1_dropShadow_625_295"/>
<feBlend mode="normal" in="SourceGraphic" in2="effect1_dropShadow_625_295" result="shape"/>
</filter>
</defs>
</svg>
