<svg width="308" height="117" viewBox="0 0 308 117" fill="none" xmlns="http://www.w3.org/2000/svg">
<g filter="url(#filter0_d_267_202)">
<g clip-path="url(#clip0_267_202)">
<rect x="14" y="10" width="280" height="89" rx="8" fill="white"/>
<path d="M34.912 38.096C34.08 38.096 33.28 37.9627 32.512 37.696C31.7547 37.4187 31.168 37.0667 30.752 36.64L31.216 35.728C31.6107 36.112 32.1387 36.4373 32.8 36.704C33.472 36.96 34.176 37.088 34.912 37.088C35.616 37.088 36.1867 37.0027 36.624 36.832C37.072 36.6507 37.3973 36.4107 37.6 36.112C37.8133 35.8133 37.92 35.4827 37.92 35.12C37.92 34.6827 37.792 34.3307 37.536 34.064C37.2907 33.7973 36.9653 33.5893 36.56 33.44C36.1547 33.28 35.7067 33.1413 35.216 33.024C34.7253 32.9067 34.2347 32.784 33.744 32.656C33.2533 32.5173 32.8 32.336 32.384 32.112C31.9787 31.888 31.648 31.5947 31.392 31.232C31.1467 30.8587 31.024 30.3733 31.024 29.776C31.024 29.2213 31.168 28.7147 31.456 28.256C31.7547 27.7867 32.208 27.4133 32.816 27.136C33.424 26.848 34.2027 26.704 35.152 26.704C35.7813 26.704 36.4053 26.7947 37.024 26.976C37.6427 27.1467 38.176 27.3867 38.624 27.696L38.224 28.64C37.744 28.32 37.232 28.0853 36.688 27.936C36.1547 27.7867 35.6373 27.712 35.136 27.712C34.464 27.712 33.9093 27.8027 33.472 27.984C33.0347 28.1653 32.7093 28.4107 32.496 28.72C32.2933 29.0187 32.192 29.36 32.192 29.744C32.192 30.1813 32.3147 30.5333 32.56 30.8C32.816 31.0667 33.1467 31.2747 33.552 31.424C33.968 31.5733 34.4213 31.7067 34.912 31.824C35.4027 31.9413 35.888 32.0693 36.368 32.208C36.8587 32.3467 37.3067 32.528 37.712 32.752C38.128 32.9653 38.4587 33.2533 38.704 33.616C38.96 33.9787 39.088 34.4533 39.088 35.04C39.088 35.584 38.9387 36.0907 38.64 36.56C38.3413 37.0187 37.8827 37.392 37.264 37.68C36.656 37.9573 35.872 38.096 34.912 38.096ZM44.9958 38.08C44.1211 38.08 43.3531 37.8987 42.6918 37.536C42.0304 37.1627 41.5131 36.656 41.1398 36.016C40.7664 35.3653 40.5798 34.624 40.5798 33.792C40.5798 32.96 40.7558 32.224 41.1078 31.584C41.4704 30.944 41.9611 30.4427 42.5798 30.08C43.2091 29.7067 43.9131 29.52 44.6918 29.52C45.4811 29.52 46.1798 29.7013 46.7878 30.064C47.4064 30.416 47.8918 30.9173 48.2438 31.568C48.5958 32.208 48.7718 32.9493 48.7718 33.792C48.7718 33.8453 48.7664 33.904 48.7558 33.968C48.7558 34.0213 48.7558 34.08 48.7558 34.144H41.4438V33.296H48.1478L47.6998 33.632C47.6998 33.024 47.5664 32.4853 47.2998 32.016C47.0438 31.536 46.6918 31.1627 46.2438 30.896C45.7958 30.6293 45.2784 30.496 44.6918 30.496C44.1158 30.496 43.5984 30.6293 43.1398 30.896C42.6811 31.1627 42.3238 31.536 42.0678 32.016C41.8118 32.496 41.6838 33.0453 41.6838 33.664V33.84C41.6838 34.48 41.8224 35.0453 42.0998 35.536C42.3878 36.016 42.7824 36.3947 43.2838 36.672C43.7958 36.9387 44.3771 37.072 45.0278 37.072C45.5398 37.072 46.0144 36.9813 46.4518 36.8C46.8998 36.6187 47.2838 36.3413 47.6038 35.968L48.2438 36.704C47.8704 37.152 47.4011 37.4933 46.8358 37.728C46.2811 37.9627 45.6678 38.08 44.9958 38.08ZM53.74 38.08C52.9507 38.08 52.3427 37.8667 51.916 37.44C51.4893 37.0133 51.276 36.4107 51.276 35.632V27.744H52.412V35.568C52.412 36.0587 52.5347 36.4373 52.78 36.704C53.036 36.9707 53.3987 37.104 53.868 37.104C54.3693 37.104 54.7853 36.96 55.116 36.672L55.516 37.488C55.292 37.6907 55.02 37.84 54.7 37.936C54.3907 38.032 54.0707 38.08 53.74 38.08ZM49.772 30.544V29.6H54.972V30.544H49.772ZM60.0213 38.08C59.2319 38.08 58.6239 37.8667 58.1973 37.44C57.7706 37.0133 57.5573 36.4107 57.5573 35.632V27.744H58.6933V35.568C58.6933 36.0587 58.8159 36.4373 59.0613 36.704C59.3173 36.9707 59.6799 37.104 60.1493 37.104C60.6506 37.104 61.0666 36.96 61.3973 36.672L61.7973 37.488C61.5733 37.6907 61.3013 37.84 60.9813 37.936C60.6719 38.032 60.3519 38.08 60.0213 38.08ZM56.0533 30.544V29.6H61.2533V30.544H56.0533ZM63.8653 38V29.6H65.0013V38H63.8653ZM64.4413 27.744C64.2066 27.744 64.0093 27.664 63.8493 27.504C63.6893 27.344 63.6093 27.152 63.6093 26.928C63.6093 26.704 63.6893 26.5173 63.8493 26.368C64.0093 26.208 64.2066 26.128 64.4413 26.128C64.6759 26.128 64.8733 26.2027 65.0333 26.352C65.1933 26.5013 65.2733 26.688 65.2733 26.912C65.2733 27.1467 65.1933 27.344 65.0333 27.504C64.8839 27.664 64.6866 27.744 64.4413 27.744ZM72.4501 29.52C73.1328 29.52 73.7301 29.6533 74.2421 29.92C74.7648 30.176 75.1701 30.5707 75.4581 31.104C75.7568 31.6373 75.9061 32.3093 75.9061 33.12V38H74.7701V33.232C74.7701 32.3467 74.5461 31.68 74.0981 31.232C73.6608 30.7733 73.0421 30.544 72.2421 30.544C71.6448 30.544 71.1221 30.6667 70.6741 30.912C70.2368 31.1467 69.8955 31.4933 69.6501 31.952C69.4155 32.4 69.2981 32.944 69.2981 33.584V38H68.1621V29.6H69.2501V31.904L69.0741 31.472C69.3408 30.864 69.7675 30.3893 70.3541 30.048C70.9408 29.696 71.6395 29.52 72.4501 29.52ZM82.5586 41.184C81.7906 41.184 81.0546 41.072 80.3506 40.848C79.6466 40.624 79.076 40.304 78.6386 39.888L79.2146 39.024C79.6093 39.376 80.0946 39.6533 80.6706 39.856C81.2573 40.0693 81.876 40.176 82.5266 40.176C83.5933 40.176 84.3773 39.9253 84.8786 39.424C85.38 38.9333 85.6306 38.1653 85.6306 37.12V35.024L85.7906 33.584L85.6786 32.144V29.6H86.7666V36.976C86.7666 38.4267 86.4093 39.488 85.6946 40.16C84.9906 40.8427 83.9453 41.184 82.5586 41.184ZM82.3506 37.68C81.5506 37.68 80.8306 37.5093 80.1906 37.168C79.5506 36.816 79.044 36.3307 78.6706 35.712C78.308 35.0933 78.1266 34.384 78.1266 33.584C78.1266 32.784 78.308 32.08 78.6706 31.472C79.044 30.8533 79.5506 30.3733 80.1906 30.032C80.8306 29.6907 81.5506 29.52 82.3506 29.52C83.0973 29.52 83.7693 29.6747 84.3666 29.984C84.964 30.2933 85.4386 30.752 85.7906 31.36C86.1426 31.968 86.3186 32.7093 86.3186 33.584C86.3186 34.4587 86.1426 35.2 85.7906 35.808C85.4386 36.416 84.964 36.88 84.3666 37.2C83.7693 37.52 83.0973 37.68 82.3506 37.68ZM82.4626 36.672C83.0813 36.672 83.6306 36.544 84.1106 36.288C84.5906 36.0213 84.9693 35.6587 85.2466 35.2C85.524 34.7307 85.6626 34.192 85.6626 33.584C85.6626 32.976 85.524 32.4427 85.2466 31.984C84.9693 31.5253 84.5906 31.168 84.1106 30.912C83.6306 30.6453 83.0813 30.512 82.4626 30.512C81.8546 30.512 81.3053 30.6453 80.8146 30.912C80.3346 31.168 79.956 31.5253 79.6786 31.984C79.412 32.4427 79.2786 32.976 79.2786 33.584C79.2786 34.192 79.412 34.7307 79.6786 35.2C79.956 35.6587 80.3346 36.0213 80.8146 36.288C81.3053 36.544 81.8546 36.672 82.4626 36.672ZM92.1838 38.08C91.4904 38.08 90.8344 37.984 90.2158 37.792C89.5971 37.5893 89.1118 37.3387 88.7598 37.04L89.2718 36.144C89.6131 36.4 90.0504 36.624 90.5838 36.816C91.1171 36.9973 91.6771 37.088 92.2638 37.088C93.0638 37.088 93.6398 36.9653 93.9918 36.72C94.3438 36.464 94.5198 36.128 94.5198 35.712C94.5198 35.4027 94.4184 35.1627 94.2158 34.992C94.0238 34.8107 93.7678 34.6773 93.4478 34.592C93.1278 34.496 92.7704 34.416 92.3758 34.352C91.9811 34.288 91.5864 34.2133 91.1918 34.128C90.8078 34.0427 90.4558 33.92 90.1358 33.76C89.8158 33.5893 89.5544 33.36 89.3518 33.072C89.1598 32.784 89.0638 32.4 89.0638 31.92C89.0638 31.4613 89.1918 31.0507 89.4478 30.688C89.7038 30.3253 90.0771 30.0427 90.5678 29.84C91.0691 29.6267 91.6771 29.52 92.3918 29.52C92.9358 29.52 93.4798 29.5947 94.0238 29.744C94.5678 29.8827 95.0158 30.0693 95.3678 30.304L94.8718 31.216C94.4984 30.96 94.0984 30.7787 93.6718 30.672C93.2451 30.5547 92.8184 30.496 92.3918 30.496C91.6344 30.496 91.0744 30.6293 90.7118 30.896C90.3598 31.152 90.1838 31.4827 90.1838 31.888C90.1838 32.208 90.2798 32.4587 90.4718 32.64C90.6744 32.8213 90.9358 32.9653 91.2558 33.072C91.5864 33.168 91.9438 33.248 92.3278 33.312C92.7224 33.376 93.1118 33.456 93.4958 33.552C93.8904 33.6373 94.2478 33.76 94.5678 33.92C94.8984 34.0693 95.1598 34.288 95.3518 34.576C95.5544 34.8533 95.6558 35.2213 95.6558 35.68C95.6558 36.1707 95.5171 36.5973 95.2398 36.96C94.9731 37.312 94.5784 37.5893 94.0558 37.792C93.5438 37.984 92.9198 38.08 92.1838 38.08Z" fill="#333333"/>
<rect width="280" height="44" transform="translate(14 55)" fill="white"/>
<path d="M31.824 83V71.8H33.008V81.976H39.28V83H31.824ZM44.3049 83.08C43.4942 83.08 42.7635 82.8987 42.1129 82.536C41.4729 82.1627 40.9662 81.656 40.5929 81.016C40.2195 80.3653 40.0329 79.624 40.0329 78.792C40.0329 77.9493 40.2195 77.208 40.5929 76.568C40.9662 75.928 41.4729 75.4267 42.1129 75.064C42.7529 74.7013 43.4835 74.52 44.3049 74.52C45.1369 74.52 45.8729 74.7013 46.5129 75.064C47.1635 75.4267 47.6702 75.928 48.0329 76.568C48.4062 77.208 48.5929 77.9493 48.5929 78.792C48.5929 79.624 48.4062 80.3653 48.0329 81.016C47.6702 81.656 47.1635 82.1627 46.5129 82.536C45.8622 82.8987 45.1262 83.08 44.3049 83.08ZM44.3049 82.072C44.9129 82.072 45.4515 81.9387 45.9209 81.672C46.3902 81.3947 46.7582 81.0107 47.0249 80.52C47.3022 80.0187 47.4409 79.4427 47.4409 78.792C47.4409 78.1307 47.3022 77.5547 47.0249 77.064C46.7582 76.5733 46.3902 76.1947 45.9209 75.928C45.4515 75.6507 44.9182 75.512 44.3209 75.512C43.7235 75.512 43.1902 75.6507 42.7209 75.928C42.2515 76.1947 41.8782 76.5733 41.6009 77.064C41.3235 77.5547 41.1849 78.1307 41.1849 78.792C41.1849 79.4427 41.3235 80.0187 41.6009 80.52C41.8782 81.0107 42.2515 81.3947 42.7209 81.672C43.1902 81.9387 43.7182 82.072 44.3049 82.072ZM54.4961 86.184C53.7281 86.184 52.9921 86.072 52.2881 85.848C51.5841 85.624 51.0135 85.304 50.5761 84.888L51.1521 84.024C51.5468 84.376 52.0321 84.6533 52.6081 84.856C53.1948 85.0693 53.8135 85.176 54.4641 85.176C55.5308 85.176 56.3148 84.9253 56.8161 84.424C57.3175 83.9333 57.5681 83.1653 57.5681 82.12V80.024L57.7281 78.584L57.6161 77.144V74.6H58.7041V81.976C58.7041 83.4267 58.3468 84.488 57.6321 85.16C56.9281 85.8427 55.8828 86.184 54.4961 86.184ZM54.2881 82.68C53.4881 82.68 52.7681 82.5093 52.1281 82.168C51.4881 81.816 50.9815 81.3307 50.6081 80.712C50.2455 80.0933 50.0641 79.384 50.0641 78.584C50.0641 77.784 50.2455 77.08 50.6081 76.472C50.9815 75.8533 51.4881 75.3733 52.1281 75.032C52.7681 74.6907 53.4881 74.52 54.2881 74.52C55.0348 74.52 55.7068 74.6747 56.3041 74.984C56.9015 75.2933 57.3761 75.752 57.7281 76.36C58.0801 76.968 58.2561 77.7093 58.2561 78.584C58.2561 79.4587 58.0801 80.2 57.7281 80.808C57.3761 81.416 56.9015 81.88 56.3041 82.2C55.7068 82.52 55.0348 82.68 54.2881 82.68ZM54.4001 81.672C55.0188 81.672 55.5681 81.544 56.0481 81.288C56.5281 81.0213 56.9068 80.6587 57.1841 80.2C57.4615 79.7307 57.6001 79.192 57.6001 78.584C57.6001 77.976 57.4615 77.4427 57.1841 76.984C56.9068 76.5253 56.5281 76.168 56.0481 75.912C55.5681 75.6453 55.0188 75.512 54.4001 75.512C53.7921 75.512 53.2428 75.6453 52.7521 75.912C52.2721 76.168 51.8935 76.5253 51.6161 76.984C51.3495 77.4427 51.2161 77.976 51.2161 78.584C51.2161 79.192 51.3495 79.7307 51.6161 80.2C51.8935 80.6587 52.2721 81.0213 52.7521 81.288C53.2428 81.544 53.7921 81.672 54.4001 81.672ZM71.1888 83.096C70.3461 83.096 69.5621 82.9573 68.8368 82.68C68.1221 82.392 67.4981 81.992 66.9648 81.48C66.4421 80.9573 66.0314 80.3547 65.7328 79.672C65.4448 78.9787 65.3008 78.2213 65.3008 77.4C65.3008 76.5787 65.4448 75.8267 65.7328 75.144C66.0314 74.4507 66.4421 73.848 66.9648 73.336C67.4981 72.8133 68.1221 72.4133 68.8368 72.136C69.5514 71.848 70.3354 71.704 71.1888 71.704C72.0314 71.704 72.8101 71.848 73.5248 72.136C74.2394 72.4133 74.8581 72.808 75.3808 73.32C75.9141 73.832 76.3248 74.4347 76.6128 75.128C76.9114 75.8213 77.0608 76.5787 77.0608 77.4C77.0608 78.2213 76.9114 78.9787 76.6128 79.672C76.3248 80.3653 75.9141 80.968 75.3808 81.48C74.8581 81.992 74.2394 82.392 73.5248 82.68C72.8101 82.9573 72.0314 83.096 71.1888 83.096ZM71.1888 82.04C71.8608 82.04 72.4794 81.928 73.0448 81.704C73.6208 81.4693 74.1168 81.144 74.5328 80.728C74.9594 80.3013 75.2901 79.8107 75.5248 79.256C75.7594 78.6907 75.8768 78.072 75.8768 77.4C75.8768 76.728 75.7594 76.1147 75.5248 75.56C75.2901 74.9947 74.9594 74.504 74.5328 74.088C74.1168 73.6613 73.6208 73.336 73.0448 73.112C72.4794 72.8773 71.8608 72.76 71.1888 72.76C70.5168 72.76 69.8928 72.8773 69.3168 73.112C68.7408 73.336 68.2394 73.6613 67.8128 74.088C67.3968 74.504 67.0661 74.9947 66.8207 75.56C66.5861 76.1147 66.4688 76.728 66.4688 77.4C66.4688 78.0613 66.5861 78.6747 66.8207 79.24C67.0661 79.8053 67.3968 80.3013 67.8128 80.728C68.2394 81.144 68.7408 81.4693 69.3168 81.704C69.8928 81.928 70.5168 82.04 71.1888 82.04ZM82.9466 83.08C82.232 83.08 81.608 82.9467 81.0746 82.68C80.5413 82.4133 80.1253 82.0133 79.8266 81.48C79.5386 80.9467 79.3946 80.28 79.3946 79.48V74.6H80.5306V79.352C80.5306 80.248 80.7493 80.9253 81.1866 81.384C81.6346 81.832 82.2586 82.056 83.0586 82.056C83.6453 82.056 84.152 81.9387 84.5786 81.704C85.016 81.4587 85.3466 81.1067 85.5706 80.648C85.8053 80.1893 85.9226 79.64 85.9226 79V74.6H87.0586V83H85.9706V80.696L86.1466 81.112C85.88 81.7307 85.464 82.216 84.8986 82.568C84.344 82.9093 83.6933 83.08 82.9466 83.08ZM92.8806 83.08C92.0913 83.08 91.4833 82.8667 91.0566 82.44C90.63 82.0133 90.4166 81.4107 90.4166 80.632V72.744H91.5526V80.568C91.5526 81.0587 91.6753 81.4373 91.9206 81.704C92.1766 81.9707 92.5393 82.104 93.0086 82.104C93.51 82.104 93.926 81.96 94.2566 81.672L94.6566 82.488C94.4326 82.6907 94.1606 82.84 93.8406 82.936C93.5313 83.032 93.2113 83.08 92.8806 83.08ZM88.9126 75.544V74.6H94.1126V75.544H88.9126Z" fill="#FF0000"/>
</g>
</g>
<defs>
<filter id="filter0_d_267_202" x="0" y="0" width="308" height="117" filterUnits="userSpaceOnUse" color-interpolation-filters="sRGB">
<feFlood flood-opacity="0" result="BackgroundImageFix"/>
<feColorMatrix in="SourceAlpha" type="matrix" values="0 0 0 0 0 0 0 0 0 0 0 0 0 0 0 0 0 0 127 0" result="hardAlpha"/>
<feOffset dy="4"/>
<feGaussianBlur stdDeviation="7"/>
<feColorMatrix type="matrix" values="0 0 0 0 0 0 0 0 0 0 0 0 0 0 0 0 0 0 0.1 0"/>
<feBlend mode="normal" in2="BackgroundImageFix" result="effect1_dropShadow_267_202"/>
<feBlend mode="normal" in="SourceGraphic" in2="effect1_dropShadow_267_202" result="shape"/>
</filter>
<clipPath id="clip0_267_202">
<rect x="14" y="10" width="280" height="89" rx="8" fill="white"/>
</clipPath>
</defs>
</svg>
