<svg width="731" height="669" viewBox="0 0 731 669" fill="none" xmlns="http://www.w3.org/2000/svg">
<path fill-rule="evenodd" clip-rule="evenodd" d="M365.959 0.173289C342.518 33.2273 314.061 77.4956 309.432 120.913C307.983 134.509 308.869 148.026 312.979 161.09C312.134 171.313 312.647 181.476 314.895 191.42C314.758 192.458 314.634 193.495 314.523 194.531C313.698 202.274 313.63 209.991 314.483 217.613C313.713 221.486 313.112 225.361 312.699 229.23C312.569 230.45 312.458 231.669 312.366 232.887C291.146 264.103 268.838 302.759 264.787 340.763C262.471 362.482 266.117 383.998 279.342 403.79C292.565 423.58 315.347 441.619 351.255 456.415C434.883 490.874 505.715 476.343 560.252 465.155C565.316 464.116 570.24 463.106 575.02 462.167C589.089 459.402 601.905 457.252 613.413 456.775C624.919 456.298 635.096 457.494 643.894 461.407C661.47 469.223 673.673 487.944 679.848 526.261L680.433 526.184C674.25 487.822 662.002 468.852 644.145 460.91C635.227 456.944 624.942 455.745 613.381 456.225C601.822 456.704 588.965 458.863 574.893 461.628C570.113 462.567 565.192 463.577 560.132 464.615L560.129 464.615L560.124 464.616C505.587 475.803 434.933 490.295 351.49 455.912C315.66 441.147 292.986 423.172 279.843 403.502C266.701 383.834 263.07 362.445 265.375 340.822C269.376 303.294 291.253 265.09 312.285 234.043C312.215 235.118 312.16 236.192 312.121 237.265C311.681 238.778 311.264 240.293 310.871 241.809C297.237 265.792 285.957 292.049 283.19 318.001C280.875 339.72 284.521 361.236 297.745 381.028C310.969 400.818 333.751 418.857 369.659 433.653C453.287 468.113 524.119 453.582 578.655 442.394L578.664 442.392L578.669 442.391C583.729 441.353 588.648 440.344 593.424 439.405C607.492 436.641 620.309 434.49 631.816 434.013C643.323 433.536 653.5 434.732 662.298 438.645C679.873 446.461 692.077 465.183 698.252 503.499L698.837 503.422C692.654 465.06 680.405 446.09 662.549 438.148C653.63 434.182 643.346 432.983 631.785 433.463C620.225 433.942 607.368 436.101 593.297 438.866C588.516 439.806 583.594 440.815 578.533 441.853L578.528 441.854C523.99 453.041 453.337 467.533 369.894 433.15C334.064 418.386 311.39 400.41 298.247 380.74C285.105 361.073 281.474 339.684 283.779 318.06C286.464 292.874 297.201 267.383 310.33 243.956C310.156 244.669 309.987 245.383 309.823 246.097C303.579 261.019 299.021 276.356 297.397 291.59C295.082 313.309 298.728 334.825 311.952 354.617C325.176 374.407 347.958 392.446 383.866 407.242C467.494 441.701 538.326 427.17 592.862 415.982C597.927 414.943 602.851 413.933 607.631 412.994C621.7 410.229 634.516 408.079 646.024 407.602C657.53 407.125 667.707 408.321 676.505 412.234C694.08 420.05 706.284 438.771 712.459 477.088L713.044 477.011C706.861 438.649 694.613 419.679 676.756 411.737C667.837 407.771 657.553 406.572 645.992 407.052C634.432 407.531 621.576 409.69 607.504 412.455C602.726 413.394 597.806 414.403 592.747 415.441L592.746 415.441L592.735 415.443C538.198 426.63 467.544 441.122 384.101 406.739C348.271 391.974 325.597 373.999 312.454 354.329C299.312 334.661 295.681 313.273 297.986 291.649C299.492 277.519 303.533 263.293 309.109 249.389C308.261 253.528 307.604 257.669 307.164 261.803C304.848 283.522 308.494 305.038 321.719 324.83C334.942 344.62 357.725 362.659 393.632 377.455C477.26 411.915 548.092 397.383 602.629 386.195C607.693 385.156 612.617 384.146 617.398 383.207C631.466 380.442 644.282 378.292 655.79 377.815C667.296 377.338 677.473 378.534 686.271 382.447C703.847 390.263 716.05 408.985 722.225 447.301L722.81 447.224C716.628 408.862 704.379 389.892 686.522 381.95C677.604 377.984 667.319 376.785 655.758 377.265C644.199 377.744 631.342 379.903 617.27 382.668C612.492 383.607 607.572 384.616 602.514 385.654L602.512 385.654L602.501 385.656C547.964 396.843 477.31 411.335 393.867 376.952C358.037 362.188 335.363 344.212 322.22 324.542C309.078 304.874 305.447 283.486 307.752 261.862C308.306 256.667 309.203 251.459 310.392 246.259C310.934 244.964 311.489 243.673 312.056 242.384C312.253 259.591 316.707 276.473 327.254 292.257C340.477 312.047 363.26 330.086 399.168 344.882C482.796 379.342 553.628 364.811 608.164 353.623C613.229 352.584 618.152 351.574 622.933 350.634C637.001 347.87 649.818 345.72 661.325 345.242C672.832 344.765 683.009 345.961 691.806 349.874C709.382 357.69 721.585 376.412 727.761 414.728L728.346 414.651C722.163 376.289 709.914 357.319 692.057 349.378C683.139 345.411 672.854 344.213 661.294 344.692C649.734 345.172 636.877 347.33 622.806 350.095C618.024 351.035 613.101 352.045 608.039 353.083L608.038 353.083L608.037 353.084C553.499 364.27 482.846 378.762 399.403 344.379C363.573 329.615 340.899 311.64 327.756 291.97C317.006 275.882 312.62 258.643 312.641 241.066C313.463 239.226 314.31 237.393 315.178 235.568C315.876 234.395 316.579 233.228 317.285 232.068C319.731 240.79 323.576 249.324 329.078 257.559C342.301 277.348 365.084 295.387 400.992 310.184C484.62 344.643 555.452 330.112 609.988 318.924C615.053 317.885 619.976 316.875 624.757 315.935C638.825 313.171 651.642 311.021 663.149 310.544C674.656 310.066 684.833 311.263 693.63 315.175C711.206 322.992 723.409 341.713 729.585 380.029L730.17 379.953C723.987 341.591 711.738 322.62 693.881 314.679C684.963 310.713 674.678 309.514 663.118 309.993C651.558 310.473 638.701 312.632 624.63 315.397C619.851 316.336 614.932 317.345 609.873 318.382L609.871 318.383L609.861 318.385C555.323 329.571 484.67 344.064 401.227 309.68C365.397 294.916 342.723 276.941 329.58 257.271C323.995 248.913 320.128 240.245 317.704 231.381C320.41 226.953 323.169 222.622 325.937 218.404C326.536 219.376 327.157 220.343 327.801 221.307C341.024 241.097 363.806 259.136 399.714 273.932C483.342 308.391 554.174 293.86 608.711 282.672C613.775 281.633 618.699 280.623 623.479 279.684C637.548 276.919 650.364 274.769 661.872 274.292C673.378 273.814 683.555 275.011 692.353 278.923C709.928 286.74 722.132 305.461 728.307 343.778L728.892 343.701C722.709 305.339 710.461 286.368 692.604 278.427C683.685 274.461 673.401 273.262 661.84 273.742C650.281 274.221 637.424 276.38 623.352 279.145C618.57 280.084 613.647 281.094 608.585 282.133L608.584 282.133L608.583 282.133C554.046 293.32 483.392 307.812 399.949 273.428C364.119 258.664 341.445 240.689 328.302 221.019C327.604 219.974 326.933 218.925 326.288 217.87C330.218 211.897 334.163 206.154 338.004 200.693C351.541 213.928 370.415 226.064 395.901 236.566C479.529 271.025 550.361 256.494 604.897 245.306C609.962 244.267 614.886 243.257 619.666 242.318C633.734 239.553 646.551 237.403 658.058 236.926C669.565 236.448 679.742 237.645 688.54 241.557C706.115 249.374 718.318 268.095 724.494 306.411L725.079 306.335C718.896 267.973 706.647 249.002 688.791 241.061C679.872 237.095 669.588 235.896 658.027 236.375C646.467 236.855 633.611 239.014 619.539 241.779C614.757 242.718 609.834 243.728 604.772 244.767L604.771 244.767L604.77 244.767C550.232 255.954 479.579 270.446 396.136 236.062C370.645 225.559 351.814 213.43 338.335 200.222C338.964 199.329 339.589 198.444 340.211 197.567L339.717 197.261C339.119 198.103 338.519 198.952 337.916 199.809C337.336 199.235 336.767 198.66 336.208 198.083C342.285 188.53 348.508 179.49 354.418 171.156L353.924 170.85C348.044 179.141 341.848 188.138 335.792 197.651C334.284 196.078 332.849 194.49 331.485 192.889C341.565 174.144 353.397 156.581 364.185 141.369L363.69 141.063C352.948 156.21 341.152 173.713 331.079 192.41C328.985 189.92 327.061 187.398 325.299 184.847C336.822 156.975 354.333 130.494 369.72 108.796L369.225 108.49C353.912 130.084 336.456 156.465 324.903 184.268L324.794 184.107L324.691 183.955L324.593 183.809L324.489 183.653C322.403 180.532 320.558 177.368 318.937 174.167C328.523 137.713 351.784 101.961 371.544 74.0975L371.05 73.7912C351.415 101.479 328.26 137.035 318.538 173.369C316.536 169.313 314.892 165.198 313.577 161.036C313.653 160.138 313.738 159.238 313.834 158.339C318.447 115.072 346.821 70.9062 370.266 37.8456L369.772 37.5393C346.331 70.5934 317.874 114.862 313.246 158.279C313.201 158.698 313.158 159.117 313.118 159.536C309.4 146.985 308.63 134.021 310.021 120.973C314.634 77.7054 343.008 33.5402 366.453 0.479561L365.959 0.173289ZM312.946 233.069C312.9 233.682 312.86 234.294 312.824 234.906C313.14 233.874 313.467 232.842 313.803 231.812L313.544 232.191C313.345 232.483 313.145 232.775 312.946 233.069ZM315.006 230.057C314.185 232.483 313.418 234.915 312.71 237.351C312.694 237.794 312.681 238.237 312.67 238.68C313.326 237.553 313.986 236.431 314.65 235.315C315.388 233.764 316.141 232.22 316.908 230.682C316.691 229.854 316.485 229.025 316.292 228.194C315.864 228.812 315.435 229.433 315.006 230.057ZM316.117 227.426C315.982 227.622 315.846 227.818 315.71 228.014C315.819 227.702 315.93 227.391 316.041 227.079C316.066 227.195 316.092 227.31 316.117 227.426ZM316.746 227.539C318.451 225.083 320.142 222.678 321.807 220.329L321.313 220.022C319.753 222.222 318.171 224.471 316.575 226.767L316.529 226.553C316.512 226.475 316.496 226.397 316.479 226.319L316.455 226.204L316.419 226.029C318.161 221.229 320.103 216.46 322.202 211.738C322.959 213.234 323.765 214.723 324.622 216.203C322.086 220.69 319.635 225.256 317.309 229.882C317.11 229.103 316.923 228.322 316.746 227.539ZM314.466 229.817C313.991 230.508 313.515 231.202 313.038 231.9C313.112 231.03 313.195 230.16 313.288 229.289C313.634 226.039 314.115 222.783 314.718 219.527C315.004 221.689 315.367 223.842 315.808 225.986C315.347 227.261 314.899 228.538 314.466 229.817ZM311.216 242.839C311.245 242.725 311.274 242.611 311.303 242.497C311.344 242.335 311.386 242.173 311.428 242.011C311.635 241.648 311.842 241.285 312.049 240.923L312.049 240.952C311.769 241.58 311.491 242.209 311.216 242.839ZM312.014 239.812L312.059 239.735L312.06 239.645L312.014 239.812ZM325.601 217.855C323.075 221.698 320.557 225.637 318.077 229.658C320.274 225.309 322.58 221.014 324.963 216.787C325.173 217.144 325.385 217.5 325.601 217.855ZM337.584 200.28C333.774 205.697 329.857 211.393 325.953 217.319C325.73 216.948 325.509 216.576 325.292 216.204C328.706 210.174 332.273 204.285 335.894 198.577C336.447 199.147 337.011 199.714 337.584 200.28ZM335.477 198.146C333.979 196.588 332.552 195.016 331.195 193.43C328.104 199.205 325.182 205.09 322.509 211.052C323.272 212.582 324.086 214.104 324.953 215.617C328.346 209.64 331.885 203.803 335.477 198.146ZM321.863 211.059C319.814 215.64 317.913 220.267 316.196 224.924C315.726 222.508 315.356 220.079 315.081 217.639C316.015 212.954 317.197 208.271 318.591 203.605C319.554 206.109 320.643 208.595 321.863 211.059ZM330.788 192.952C327.727 198.659 324.829 204.476 322.172 210.37C320.933 207.831 319.834 205.269 318.868 202.687C320.627 196.914 322.707 191.169 325.038 185.481C326.794 188.002 328.708 190.493 330.788 192.952ZM324.64 184.905C324.42 184.584 324.202 184.263 323.987 183.941C322.023 181.001 320.27 178.024 318.717 175.013C317.314 180.469 316.221 185.94 315.494 191.401C316.287 194.889 317.294 198.348 318.532 201.774C320.286 196.113 322.343 190.481 324.64 184.905ZM318.248 202.699C317.064 199.517 316.081 196.304 315.284 193.067C315.223 193.575 315.166 194.083 315.112 194.591C314.358 201.665 314.239 208.714 314.881 215.686C315.805 211.349 316.937 207.016 318.248 202.699ZM318.313 174.221C316.962 179.382 315.886 184.557 315.131 189.727C313.284 180.81 312.817 171.72 313.46 162.57C314.773 166.5 316.383 170.386 318.313 174.221ZM242.869 360.065C247.497 316.647 275.955 272.379 299.395 239.325L299.89 239.631C276.444 272.692 248.07 316.857 243.457 360.124C241.152 381.748 244.783 403.137 257.925 422.805C271.068 442.475 293.742 460.45 329.572 475.214C413.015 509.597 483.669 495.105 538.206 483.919L538.217 483.916L538.239 483.912L538.252 483.909C543.299 482.874 548.208 481.867 552.975 480.93C567.047 478.165 579.904 476.007 591.463 475.527C603.024 475.048 613.309 476.246 622.227 480.213C640.084 488.154 652.333 507.125 658.515 545.486L657.93 545.563C651.755 507.247 639.552 488.525 621.976 480.709C613.178 476.796 603.001 475.6 591.495 476.077C579.987 476.555 567.171 478.705 553.103 481.469C548.344 482.404 543.443 483.41 538.402 484.444L538.398 484.444L538.391 484.446L538.361 484.452L538.337 484.457L538.334 484.458C483.797 495.646 412.965 510.177 329.337 475.717C293.429 460.921 270.647 442.882 257.424 423.092C244.199 403.301 240.553 381.784 242.869 360.065ZM274.85 255.759C251.409 288.813 222.952 333.081 218.324 376.499C216.008 398.218 219.654 419.734 232.879 439.526C246.102 459.316 268.884 477.355 304.792 492.151C388.42 526.611 459.252 512.08 513.789 500.891L513.797 500.89L513.803 500.889C518.862 499.851 523.781 498.841 528.557 497.903C542.626 495.139 555.442 492.988 566.95 492.511C578.456 492.034 588.633 493.23 597.431 497.143C615.007 504.959 627.21 523.681 633.385 561.997L633.97 561.92C627.787 523.558 615.539 504.588 597.682 496.646C588.764 492.68 578.479 491.481 566.918 491.961C555.359 492.44 542.502 494.599 528.43 497.364C523.648 498.304 518.724 499.314 513.661 500.352C459.124 511.539 388.47 526.031 305.027 491.648C269.197 476.884 246.523 458.908 233.38 439.238C220.238 419.57 216.607 398.182 218.912 376.558C223.525 333.291 251.899 289.126 275.344 256.065L274.85 255.759ZM192.004 390.843C196.633 347.425 225.09 303.157 248.53 270.103L249.025 270.409C225.58 303.47 197.205 347.635 192.593 390.902C190.287 412.526 193.919 433.915 207.06 453.583C220.204 473.253 242.877 491.228 278.708 505.992C362.151 540.375 432.804 525.883 487.342 514.697L487.343 514.696L487.359 514.693C492.416 513.656 497.334 512.647 502.111 511.708C516.182 508.943 529.039 506.785 540.598 506.305C552.159 505.826 562.444 507.024 571.362 510.991C589.219 518.932 601.468 537.902 607.65 576.264L607.065 576.341C600.89 538.025 588.687 519.303 571.111 511.487C562.313 507.574 552.137 506.378 540.63 506.855C529.122 507.333 516.306 509.483 502.238 512.247C497.457 513.187 492.533 514.197 487.469 515.236C432.932 526.424 362.1 540.955 278.472 506.495C242.565 491.699 219.782 473.66 206.559 453.87C193.334 434.078 189.689 412.562 192.004 390.843ZM221.157 283.136C197.717 316.19 169.26 360.458 164.631 403.876C162.316 425.595 165.961 447.111 179.186 466.903C192.409 486.693 215.192 504.732 251.099 519.528C334.727 553.988 405.56 539.457 460.096 528.268L460.105 528.267L460.11 528.266C465.17 527.228 470.089 526.219 474.865 525.28C488.933 522.516 501.75 520.365 513.257 519.888C524.764 519.411 534.94 520.607 543.738 524.52C561.314 532.336 573.517 551.058 579.693 589.374L580.277 589.297C574.095 550.935 561.846 531.965 543.989 524.023C535.071 520.057 524.786 518.858 513.226 519.338C501.666 519.817 488.809 521.976 474.738 524.741C469.957 525.681 465.035 526.69 459.974 527.728L459.969 527.729C405.431 538.916 334.778 553.408 251.335 519.025C215.504 504.261 192.831 486.285 179.688 466.615C166.546 446.947 162.914 425.559 165.22 403.935C169.832 360.668 198.207 316.503 221.652 283.442L221.157 283.136ZM136.754 416.265C141.383 372.847 169.84 328.578 193.281 295.524L193.775 295.831C170.33 328.891 141.956 373.057 137.343 416.324C135.038 437.947 138.669 459.336 151.811 479.004C164.954 498.674 187.628 516.649 223.458 531.414C306.901 565.797 377.555 551.305 432.092 540.118L432.093 540.118L432.11 540.115C437.166 539.077 442.084 538.069 446.861 537.13C460.933 534.365 473.789 532.206 485.349 531.727C496.91 531.247 507.194 532.446 516.113 536.412C533.97 544.354 546.218 563.324 552.401 601.686L551.816 601.763C545.641 563.446 533.437 544.725 515.862 536.909C507.064 532.996 496.887 531.8 485.381 532.277C473.873 532.754 461.057 534.904 446.988 537.669C442.208 538.608 437.284 539.618 432.219 540.657C377.683 551.845 306.851 566.376 223.223 531.917C187.315 517.121 164.533 499.082 151.309 479.292C138.085 459.5 134.439 437.983 136.754 416.265ZM165.325 307.804C141.884 340.858 113.427 385.126 108.798 428.544C106.483 450.263 110.128 471.779 123.353 491.571C136.577 511.361 159.359 529.4 195.267 544.196C278.895 578.656 349.727 564.125 404.263 552.937L404.267 552.936L404.291 552.931L404.321 552.925L404.328 552.923L404.332 552.922C409.372 551.888 414.273 550.883 419.032 549.948C433.1 547.184 445.917 545.033 457.424 544.556C468.931 544.079 479.108 545.275 487.905 549.188C505.481 557.004 517.684 575.726 523.86 614.042L524.445 613.965C518.262 575.603 506.013 556.633 488.157 548.691C479.238 544.725 468.953 543.526 457.393 544.006C445.833 544.485 432.976 546.644 418.905 549.409C414.128 550.348 409.21 551.357 404.154 552.394L404.137 552.397L404.136 552.397C349.598 563.584 278.945 578.076 195.502 543.693C159.672 528.929 136.998 510.953 123.855 491.283C110.713 471.616 107.082 450.227 109.387 428.603C113.999 385.336 142.374 341.171 165.819 308.11L165.325 307.804ZM81.0644 441.119C85.6931 397.701 114.15 353.433 137.591 320.379L138.085 320.685C114.64 353.746 86.2657 397.911 81.6531 441.178C79.3478 462.802 82.9791 484.191 96.1209 503.859C109.264 523.529 131.938 541.504 167.768 556.268C251.211 590.651 321.865 576.159 376.402 564.973L376.405 564.972L376.423 564.968C381.478 563.931 386.395 562.923 391.171 561.984C405.243 559.219 418.099 557.061 429.659 556.581C441.22 556.102 451.504 557.3 460.423 561.267C478.28 569.208 490.528 588.178 496.711 626.54L496.126 626.617C489.951 588.301 477.747 569.579 460.172 561.763C451.374 557.85 441.197 556.654 429.691 557.131C418.183 557.608 405.367 559.759 391.298 562.523C386.518 563.463 381.594 564.473 376.529 565.512C321.993 576.7 251.161 591.231 167.533 556.771C131.625 541.975 108.843 523.936 95.6194 504.146C82.3947 484.354 78.749 462.838 81.0644 441.119ZM110.32 333.542C86.8798 366.596 58.4226 410.865 53.7939 454.282C51.4785 476.001 55.1242 497.518 68.349 517.31C81.5722 537.1 104.355 555.139 140.262 569.935C223.89 604.394 294.722 589.863 349.259 578.675L349.263 578.674C354.326 577.636 359.248 576.626 364.028 575.687C378.096 572.922 390.912 570.772 402.42 570.295C413.927 569.817 424.103 571.014 432.901 574.927C450.477 582.743 462.68 601.464 468.855 639.78L469.44 639.704C463.258 601.342 451.009 582.371 433.152 574.43C424.234 570.464 413.949 569.265 402.388 569.745C390.829 570.224 377.972 572.383 363.901 575.148C359.118 576.088 354.194 577.098 349.132 578.136C294.594 589.323 223.941 603.815 140.498 569.431C104.667 554.667 81.9937 536.692 68.8504 517.022C55.7086 497.354 52.0773 475.965 54.3826 454.342C58.9952 411.075 87.3697 366.909 110.815 333.849L110.32 333.542ZM27.1582 468.236C31.7869 424.818 60.244 380.55 83.6845 347.496L84.1791 347.802C60.7339 380.863 32.3594 425.028 27.7468 468.295C25.4416 489.919 29.0728 511.308 42.2147 530.975C55.358 550.645 78.0317 568.621 113.862 583.385C197.305 617.768 267.958 603.276 322.496 592.089L322.504 592.088L322.511 592.086C327.568 591.049 332.487 590.04 337.265 589.101C351.336 586.336 364.193 584.177 375.753 583.698C387.313 583.218 397.598 584.417 406.517 588.384C424.373 596.325 436.622 615.295 442.805 653.657L442.22 653.734C436.044 615.418 423.841 596.696 406.265 588.88C397.468 584.967 387.291 583.771 375.784 584.248C364.277 584.725 351.46 586.876 337.392 589.64C332.611 590.579 327.688 591.59 322.623 592.629C268.087 603.817 197.255 618.348 113.627 583.888C77.719 569.092 54.9365 551.053 41.7132 531.263C28.4885 511.471 24.8428 489.955 27.1582 468.236ZM57.8043 362.372C34.3638 395.426 5.90665 439.694 1.27798 483.112C-1.03742 504.831 2.60827 526.347 15.833 546.139C29.0563 565.929 51.8388 583.968 87.7464 598.764C171.374 633.224 242.207 618.693 296.743 607.505C301.807 606.466 306.731 605.455 311.512 604.516C325.58 601.752 338.396 599.601 349.904 599.124C361.411 598.647 371.587 599.843 380.385 603.756C397.961 611.572 410.164 630.294 416.339 668.61L416.924 668.533C410.742 630.171 398.493 611.201 380.636 603.259C371.718 599.293 361.433 598.094 349.873 598.574C338.313 599.053 325.456 601.212 311.385 603.977C306.604 604.917 301.682 605.926 296.621 606.964L296.616 606.965C242.078 618.152 171.425 632.644 87.9817 598.261C52.1515 583.497 29.4778 565.521 16.3345 545.851C3.19262 526.184 -0.438629 504.795 1.86662 483.171C6.47924 439.904 34.8537 395.739 58.2989 362.678L57.8043 362.372Z" fill="white"/>
</svg>
